<svg width="28" height="18" fill="none" xmlns="http://www.w3.org/2000/svg"><mask id="a" style="mask-type:alpha" maskUnits="userSpaceOnUse" x="0" y="0" width="28" height="18"><path d="M24.929.5H3.07C1.651.5.5 1.515.5 2.767v12.466c0 1.252 1.151 2.267 2.571 2.267H24.93c1.42 0 2.571-1.015 2.571-2.267V2.767C27.5 1.515 26.349.5 24.929.5z" fill="#fff"/></mask><g mask="url(#a)"><path d="M24.929.5H3.07C1.651.5.5 1.515.5 2.767v12.466c0 1.252 1.151 2.267 2.571 2.267H24.93c1.42 0 2.571-1.015 2.571-2.267V2.767C27.5 1.515 26.349.5 24.929.5z" fill="#fff"/><path fill-rule="evenodd" clip-rule="evenodd" d="M.5.5h11.571v7.933H.5V.5z" fill="#444379"/><path fill-rule="evenodd" clip-rule="evenodd" d="M1.785 1.634v1.133h1.286V1.634H1.785zm2.572 0v1.133h1.285V1.634H4.357zm2.571 0v1.133h1.286V1.634H6.928zm2.571 0v1.133h1.286V1.634H9.5zM8.214 2.767V3.9h1.285V2.767H8.214zm-2.572 0V3.9h1.286V2.767H5.642zm-2.571 0V3.9h1.286V2.767H3.07zM1.785 3.9v1.134h1.286V3.9H1.785zm2.572 0v1.134h1.285V3.9H4.357zm2.571 0v1.134h1.286V3.9H6.928zm2.571 0v1.134h1.286V3.9H9.5zM1.785 6.167V7.3h1.286V6.167H1.785zm2.572 0V7.3h1.285V6.167H4.357zm2.571 0V7.3h1.286V6.167H6.928zm2.571 0V7.3h1.286V6.167H9.5zM8.214 5.034v1.133h1.285V5.034H8.214zm-2.572 0v1.133h1.286V5.034H5.642zm-2.571 0v1.133h1.286V5.034H3.07z" fill="#A7B6E7"/><path fill-rule="evenodd" clip-rule="evenodd" d="M12.071.5v1.133H27.5V.5H12.071zm0 2.267V3.9H27.5V2.767H12.071zm0 2.266v1.134H27.5V5.033H12.071zm0 2.267v1.133H27.5V7.3H12.071zM.5 9.567V10.7h27V9.567H.5zm0 2.266v1.134h27v-1.134H.5zm0 2.267v1.133h27V14.1H.5zm0 2.267V17.5h27v-1.133H.5z" fill="#ED4C49"/><path d="M24.928 1.066H3.071c-1.065 0-1.928.762-1.928 1.7v12.467c0 .939.863 1.7 1.928 1.7h21.857c1.065 0 1.929-.761 1.929-1.7V2.766c0-.938-.864-1.7-1.929-1.7z" stroke="#000" stroke-opacity=".1" stroke-width="1.3"/></g></svg>