<svg width="251" height="108" fill="none" xmlns="http://www.w3.org/2000/svg"><g clip-path="url(#clip0_177_1236)"><path d="M24.042 36.903l1.127.366.733-2.254-1.127-.366-.733 2.254zM8.856 31.467a1.185 1.185 0 001.064 2.118l-1.064-2.118zm15.919 3.182c-.74-.24-1.777-.67-3.063-1.185-1.259-.505-2.71-1.074-4.192-1.55-1.477-.475-3.029-.873-4.489-1.019-1.443-.144-2.926-.055-4.175.572l1.064 2.118c.674-.338 1.636-.455 2.876-.331 1.224.122 2.596.465 3.998.916 1.398.45 2.783.991 4.036 1.493 1.225.492 2.373.967 3.212 1.24l.733-2.254z" fill="url(#paint0_linear_177_1236)"/><path d="M53.006 56.848l-27.204-17.63" stroke="url(#paint1_linear_177_1236)" stroke-width="2.37" stroke-linecap="round"/><path d="M68.094 70.434l-1.016.61 1.22 2.032 1.016-.61-1.22-2.032zm-3.636-7.505a1.185 1.185 0 10-1.24 2.02l1.24-2.02zm4.856 9.537a2.723 2.723 0 001.261-1.72c.181-.76.052-1.582-.329-2.403-.745-1.604-2.549-3.425-5.788-5.414l-1.24 2.02c3.104 1.906 4.428 3.423 4.878 4.392.217.466.202.738.173.856a.355.355 0 01-.175.237l1.22 2.032z" fill="url(#paint2_linear_177_1236)"/><path d="M22.955 28.075l.522-1.687.508 1.687c1.96 6.51 6.893 12.066 13.684 15.411l1.76.61-1.76.867c-6.79 3.346-11.724 8.902-13.684 15.411l-.508 1.688-.522-1.688c-1.96-6.51-6.893-12.065-13.684-15.41l-1.76-.868 1.76-.61c5.6-2.758 9.936-7.02 12.384-12.079.52-1.077.956-2.19 1.3-3.332z" fill="url(#paint3_linear_177_1236)"/><path d="M22.955 28.075l.522-1.687.508 1.687c1.96 6.51 6.893 12.066 13.684 15.411l1.76.61-1.76.867c-6.79 3.346-11.724 8.902-13.684 15.411l-.508 1.688-.522-1.688c-1.96-6.51-6.893-12.065-13.684-15.41l-1.76-.868 1.76-.61c5.6-2.758 9.936-7.02 12.384-12.079.52-1.077.956-2.19 1.3-3.332z" stroke="#79627D" stroke-width="2.37"/><path d="M22.955 28.075l.522-1.687.508 1.687c1.96 6.51 6.893 12.066 13.684 15.411l1.76.61-1.76.867c-6.79 3.346-11.724 8.902-13.684 15.411l-.508 1.688-.522-1.688c-1.96-6.51-6.893-12.065-13.684-15.41l-1.76-.868 1.76-.61c5.6-2.758 9.936-7.02 12.384-12.079.52-1.077.956-2.19 1.3-3.332z" stroke="url(#paint4_linear_177_1236)" stroke-width="2.37"/><path d="M49.12 39.785l.644-2.132.628 2.132c2.42 8.223 8.515 15.24 16.904 19.466l2.174.77-2.174 1.096c-8.39 4.226-14.484 11.244-16.904 19.467l-.628 2.131-.645-2.131c-2.42-8.223-8.514-15.241-16.904-19.467l-2.174-1.095 2.174-.77c8.39-4.226 14.484-11.244 16.904-19.467z" fill="url(#paint5_linear_177_1236)"/><path d="M49.12 39.785l.644-2.132.628 2.132c2.42 8.223 8.515 15.24 16.904 19.466l2.174.77-2.174 1.096c-8.39 4.226-14.484 11.244-16.904 19.467l-.628 2.131-.645-2.131c-2.42-8.223-8.514-15.241-16.904-19.467l-2.174-1.095 2.174-.77c8.39-4.226 14.484-11.244 16.904-19.467z" stroke="#79627D" stroke-width="2.37"/><path d="M49.12 39.785l.644-2.132.628 2.132c2.42 8.223 8.515 15.24 16.904 19.466l2.174.77-2.174 1.096c-8.39 4.226-14.484 11.244-16.904 19.467l-.628 2.131-.645-2.131c-2.42-8.223-8.514-15.241-16.904-19.467l-2.174-1.095 2.174-.77c8.39-4.226 14.484-11.244 16.904-19.467z" stroke="url(#paint6_linear_177_1236)" stroke-width="2.37"/><path d="M10.207 32.02c-4.68 4.306 11.773 15.549 21.848 22.84 10.075 7.934 30.65 22.702 36.476 16.59" stroke="url(#paint7_linear_177_1236)" stroke-width="2.37" stroke-linecap="round"/></g><path d="M86.102 59h-5.813c-.14 0-.219-.078-.234-.234l-6.633-32.977c-.031-.125.031-.187.187-.187h5.438c.125 0 .203.062.234.187l3.938 21.984 3.844-21.984c.03-.125.109-.187.234-.187h5.367c.172 0 .234.062.188.187l-6.516 32.977c-.016.156-.094.234-.234.234zm27.159 0H97.745c-.125 0-.187-.078-.187-.234l.047-32.977c0-.125.062-.187.187-.187h15.422c.125 0 .188.078.188.234v5.367c0 .125-.063.188-.188.188h-9.844v7.5h9.844c.125 0 .188.062.188.187l.046 5.438c0 .125-.062.187-.187.187h-9.891v8.39h9.891c.125 0 .187.079.187.235v5.484c0 .126-.062.188-.187.188zm14.48 0h-4.805c-.25 0-.375-.11-.375-.328l-.047-32.695c0-.25.125-.375.375-.375h4.336l8.109 18.914-.234-18.54c0-.25.141-.374.422-.374h4.758c.187 0 .281.125.281.375l.047 32.742c0 .187-.078.281-.235.281h-4.218l-8.321-17.672.352 17.297c0 .25-.149.375-.445.375zm30.675-.047l-8.602.047c-.156 0-.234-.078-.234-.234l.093-32.977c0-.125.063-.187.188-.187l8.977-.047c1.781-.047 3.39.36 4.828 1.218a9.65 9.65 0 013.468 3.493c.875 1.453 1.313 3.062 1.313 4.828v13.781c0 1.844-.445 3.531-1.336 5.063a10.432 10.432 0 01-3.609 3.632c-1.5.89-3.196 1.352-5.086 1.383zm.422-27.656l-3.352.047-.047 21.75h2.977c1.187 0 2.187-.414 3-1.242.812-.829 1.218-1.82 1.218-2.977V35.047c0-1.016-.375-1.899-1.125-2.649-.75-.765-1.64-1.132-2.671-1.101zm27.065 28.172a8.893 8.893 0 01-4.711-1.313 10.233 10.233 0 01-3.445-3.492c-.86-1.469-1.289-3.078-1.289-4.828l.047-15.211c0-1.781.429-3.383 1.289-4.805a9.63 9.63 0 013.422-3.445 8.848 8.848 0 014.687-1.313c1.75 0 3.32.43 4.711 1.29a9.71 9.71 0 013.375 3.468c.859 1.438 1.289 3.04 1.289 4.805l.047 15.21c0 1.75-.422 3.352-1.266 4.806a9.966 9.966 0 01-3.422 3.515c-1.421.875-3 1.313-4.734 1.313zm0-5.79c.969 0 1.813-.39 2.531-1.171.719-.797 1.078-1.688 1.078-2.672l-.046-15.211c0-1.063-.336-1.96-1.008-2.695-.672-.735-1.524-1.102-2.555-1.102-.984 0-1.828.36-2.531 1.078-.703.719-1.055 1.625-1.055 2.719v15.21c0 1.048.352 1.954 1.055 2.72.703.75 1.547 1.125 2.531 1.125zM209.383 59h-5.438c-.125 0-.187-.078-.187-.234l.094-32.977c0-.125.062-.187.187-.187h9.703c1.735 0 3.328.421 4.781 1.265a9.634 9.634 0 013.469 3.399c.875 1.422 1.313 3.03 1.313 4.828 0 1.172-.18 2.234-.539 3.187-.36.953-.782 1.758-1.266 2.414-.469.657-.898 1.14-1.289 1.453 1.734 1.922 2.601 4.18 2.601 6.774l.047 9.844c0 .156-.078.234-.234.234h-5.437c-.126 0-.188-.047-.188-.14v-9.938c0-1.156-.406-2.156-1.219-3-.812-.844-1.812-1.266-3-1.266h-3.164l-.047 14.11c0 .156-.062.234-.187.234zm4.359-27.656h-4.125v7.547h4.125c.985 0 1.86-.368 2.625-1.102.781-.734 1.172-1.633 1.172-2.695 0-1.016-.375-1.89-1.125-2.625-.75-.75-1.641-1.125-2.672-1.125z" fill="#30304A"/><path d="M153.734 87h-3.875c-.093 0-.145-.052-.156-.156l-4.422-21.985c-.021-.083.021-.125.125-.125h3.625c.084 0 .136.042.157.125l2.624 14.657 2.563-14.657c.021-.083.073-.125.156-.125h3.578c.115 0 .157.042.125.125l-4.343 21.985c-.011.104-.063.156-.157.156zm18.107 0h-10.344c-.083 0-.125-.052-.125-.156l.031-21.985c0-.083.042-.125.125-.125h10.281c.084 0 .125.053.125.157v3.578c0 .083-.041.125-.125.125h-6.562v5h6.562c.084 0 .125.041.125.125l.032 3.625c0 .083-.042.125-.125.125h-6.594v5.594h6.594c.083 0 .125.052.125.156v3.656c0 .083-.042.125-.125.125zm9.918 0h-3.625c-.083 0-.125-.052-.125-.156l.063-21.985c0-.083.042-.125.125-.125h6.469a6.24 6.24 0 013.187.844 6.428 6.428 0 012.313 2.266c.583.948.875 2.02.875 3.219 0 .78-.12 1.49-.36 2.124-.239.636-.521 1.172-.844 1.61-.312.437-.598.76-.859.969 1.156 1.28 1.734 2.786 1.734 4.515l.032 6.563c0 .104-.052.156-.157.156h-3.625c-.083 0-.125-.031-.125-.094v-6.625c0-.77-.27-1.437-.812-2a2.67 2.67 0 00-2-.844h-2.109l-.032 9.407c0 .104-.041.156-.125.156zm2.907-18.438h-2.75v5.032h2.75c.656 0 1.239-.245 1.75-.735.52-.49.781-1.088.781-1.796 0-.678-.25-1.26-.75-1.75-.5-.5-1.094-.75-1.781-.75zm17.418 18.75a5.926 5.926 0 01-3.14-.874 6.69 6.69 0 01-2.282-2.329 6.353 6.353 0 01-.843-3.218v-1.47c0-.114.052-.171.156-.171h3.594c.083 0 .125.057.125.172v1.469c0 .697.234 1.302.703 1.812.469.5 1.031.75 1.687.75.667 0 1.235-.255 1.703-.766.469-.52.704-1.12.704-1.796 0-.782-.511-1.464-1.532-2.047-.166-.104-.385-.23-.656-.375-.26-.156-.573-.334-.937-.531l-1.063-.579a56 56 0 00-1-.562c-1.167-.688-2.036-1.547-2.609-2.578-.563-1.042-.844-2.209-.844-3.5 0-1.188.292-2.26.875-3.219a6.55 6.55 0 012.281-2.25 5.926 5.926 0 013.078-.844 6.01 6.01 0 013.125.844 6.513 6.513 0 012.266 2.281c.573.948.859 2.01.859 3.188v2.625c0 .083-.041.125-.125.125h-3.593c-.084 0-.125-.042-.125-.125l-.032-2.625c0-.75-.234-1.36-.703-1.828a2.28 2.28 0 00-1.672-.704c-.656 0-1.218.25-1.687.75a2.515 2.515 0 00-.703 1.782c0 .698.146 1.281.437 1.75.302.469.849.916 1.641 1.344.083.041.276.145.578.312a81.5 81.5 0 011 .563c.375.197.714.38 1.016.546l.546.282c1.063.593 1.902 1.322 2.516 2.187.625.865.938 1.927.938 3.188 0 1.218-.282 2.312-.844 3.28a6.428 6.428 0 01-2.281 2.298c-.948.562-2 .844-3.157.844zM224.253 87h-10.344c-.083 0-.125-.052-.125-.156l.032-21.985c0-.083.041-.125.125-.125h10.281c.083 0 .125.053.125.157v3.578c0 .083-.042.125-.125.125h-6.563v5h6.563c.083 0 .125.041.125.125l.031 3.625c0 .083-.042.125-.125.125h-6.594v5.594h6.594c.083 0 .125.052.125.156v3.656c0 .083-.042.125-.125.125z" fill="url(#paint8_linear_177_1236)"/><defs><linearGradient id="paint0_linear_177_1236" x1="16.898" y1="32.02" x2="16.898" y2="35.776" gradientUnits="userSpaceOnUse"><stop/><stop offset="1" stop-color="#5E0060"/></linearGradient><linearGradient id="paint1_linear_177_1236" x1="39.792" y1="39.725" x2="39.191" y2="56.348" gradientUnits="userSpaceOnUse"><stop/><stop offset="1" stop-color="#5E0060"/></linearGradient><linearGradient id="paint2_linear_177_1236" x1="66.654" y1="63.94" x2="66.654" y2="71.45" gradientUnits="userSpaceOnUse"><stop/><stop offset="1" stop-color="#000A60"/></linearGradient><linearGradient id="paint3_linear_177_1236" x1="23.47" y1="26.388" x2="23.47" y2="62.062" gradientUnits="userSpaceOnUse"><stop stop-color="#FFB301"/><stop offset="1" stop-color="#FF9201"/></linearGradient><linearGradient id="paint4_linear_177_1236" x1="23.47" y1="26.388" x2="23.47" y2="62.062" gradientUnits="userSpaceOnUse"><stop/><stop offset="1" stop-color="#06083A"/></linearGradient><linearGradient id="paint5_linear_177_1236" x1="49.756" y1="37.653" x2="49.756" y2="82.715" gradientUnits="userSpaceOnUse"><stop stop-color="#FFB301"/><stop offset="1" stop-color="#FF9201"/></linearGradient><linearGradient id="paint6_linear_177_1236" x1="49.756" y1="37.653" x2="49.756" y2="82.715" gradientUnits="userSpaceOnUse"><stop/><stop offset="1" stop-color="#000460"/></linearGradient><linearGradient id="paint7_linear_177_1236" x1="39.429" y1="32.02" x2="39.429" y2="73.327" gradientUnits="userSpaceOnUse"><stop/><stop offset="1" stop-color="#020060"/></linearGradient><linearGradient id="paint8_linear_177_1236" x1="194.075" y1="48" x2="194.075" y2="107.798" gradientUnits="userSpaceOnUse"><stop offset=".01" stop-color="#FFB300"/><stop offset="1" stop-color="#FF4B12"/></linearGradient><clipPath id="clip0_177_1236"><path fill="#fff" transform="translate(0 17)" d="M0 0h75.103v69.674H0z"/></clipPath></defs></svg>