<svg width="478" height="88" fill="none" xmlns="http://www.w3.org/2000/svg"><path d="M24.35 20.851l1.127.366.732-2.254-1.127-.366-.732 2.254zM9.163 15.416a1.185 1.185 0 101.064 2.117l-1.064-2.118zm15.92 3.18c-.74-.24-1.777-.668-3.063-1.184-1.26-.505-2.71-1.074-4.193-1.55-1.477-.475-3.028-.873-4.488-1.018-1.444-.145-2.926-.056-4.176.572l1.064 2.117c.674-.338 1.636-.455 2.877-.331 1.223.122 2.595.465 3.998.916 1.397.45 2.783.991 4.035 1.494 1.225.491 2.374.966 3.213 1.239l.732-2.254z" fill="url(#paint0_linear_932_4999)"/><path d="M53.314 40.796l-27.205-17.63" stroke="url(#paint1_linear_932_4999)" stroke-width="2.37" stroke-linecap="round"/><path d="M68.4 54.382l-1.015.61 1.22 2.032 1.016-.61-1.22-2.032zm-3.635-7.504a1.185 1.185 0 00-1.24 2.02l1.24-2.02zm4.856 9.536a2.723 2.723 0 001.26-1.72c.182-.76.053-1.582-.328-2.403-.745-1.604-2.55-3.425-5.788-5.413l-1.24 2.02c3.104 1.905 4.428 3.422 4.878 4.391.216.466.201.738.173.856a.355.355 0 01-.175.237l1.22 2.032z" fill="url(#paint2_linear_932_4999)"/><path d="M23.26 12.023l.523-1.687.508 1.687c1.96 6.51 6.893 12.066 13.684 15.411l1.76.61-1.76.867c-6.791 3.346-11.725 8.902-13.684 15.411l-.508 1.688-.522-1.688c-1.96-6.51-6.893-12.065-13.684-15.41l-1.76-.868 1.76-.61c5.6-2.758 9.936-7.02 12.383-12.079a22.5 22.5 0 001.3-3.332z" fill="url(#paint3_linear_932_4999)"/><path d="M23.26 12.023l.523-1.687.508 1.687c1.96 6.51 6.893 12.066 13.684 15.411l1.76.61-1.76.867c-6.791 3.346-11.725 8.902-13.684 15.411l-.508 1.688-.522-1.688c-1.96-6.51-6.893-12.065-13.684-15.41l-1.76-.868 1.76-.61c5.6-2.758 9.936-7.02 12.383-12.079a22.5 22.5 0 001.3-3.332z" stroke="#79627D" stroke-width="2.37"/><path d="M23.26 12.023l.523-1.687.508 1.687c1.96 6.51 6.893 12.066 13.684 15.411l1.76.61-1.76.867c-6.791 3.346-11.725 8.902-13.684 15.411l-.508 1.688-.522-1.688c-1.96-6.51-6.893-12.065-13.684-15.41l-1.76-.868 1.76-.61c5.6-2.758 9.936-7.02 12.383-12.079a22.5 22.5 0 001.3-3.332z" stroke="url(#paint4_linear_932_4999)" stroke-width="2.37"/><path d="M49.426 23.733l.645-2.131.627 2.131c2.421 8.223 8.515 15.24 16.904 19.466l2.175.771-2.175 1.096C59.213 49.29 53.12 56.309 50.698 64.531l-.627 2.131-.645-2.131c-2.42-8.223-8.515-15.24-16.904-19.466l-2.174-1.096 2.174-.77c8.39-4.226 14.483-11.244 16.904-19.467z" fill="url(#paint5_linear_932_4999)"/><path d="M49.426 23.733l.645-2.131.627 2.131c2.421 8.223 8.515 15.24 16.904 19.466l2.175.771-2.175 1.096C59.213 49.29 53.12 56.309 50.698 64.531l-.627 2.131-.645-2.131c-2.42-8.223-8.515-15.24-16.904-19.466l-2.174-1.096 2.174-.77c8.39-4.226 14.483-11.244 16.904-19.467z" stroke="#79627D" stroke-width="2.37"/><path d="M49.426 23.733l.645-2.131.627 2.131c2.421 8.223 8.515 15.24 16.904 19.466l2.175.771-2.175 1.096C59.213 49.29 53.12 56.309 50.698 64.531l-.627 2.131-.645-2.131c-2.42-8.223-8.515-15.24-16.904-19.466l-2.174-1.096 2.174-.77c8.39-4.226 14.483-11.244 16.904-19.467z" stroke="url(#paint6_linear_932_4999)" stroke-width="2.37"/><path d="M10.515 15.969c-4.68 4.305 11.773 15.547 21.848 22.838 10.074 7.934 30.65 22.703 36.476 16.59" stroke="url(#paint7_linear_932_4999)" stroke-width="2.37" stroke-linecap="round"/><g filter="url(#filter0_d_932_4999)"><path d="M95.697 58.793L84.473 27.145H95.33l6.348 21.16h.184l6.394-21.16h10.396l-11.178 31.648H95.697zm41.379-24.84c4.447 0 7.836 1.043 10.166 3.128 2.362 2.085 3.542 5.275 3.542 9.568v1.564h-18.216c0 1.748.384 3.067 1.15 3.956.798.89 2.04 1.334 3.726 1.334 1.534 0 2.653-.322 3.358-.966.736-.644 1.104-1.503 1.104-2.576h8.878c0 2.944-1.119 5.244-3.358 6.9-2.238 1.656-5.504 2.484-9.798 2.484-4.508 0-8.004-1.043-10.488-3.128-2.484-2.116-3.726-5.305-3.726-9.568 0-4.17 1.212-7.33 3.634-9.476 2.423-2.147 5.766-3.22 10.028-3.22zm.368 5.842c-2.882 0-4.492 1.365-4.83 4.094h8.924c0-1.257-.368-2.254-1.104-2.99-.705-.736-1.702-1.104-2.99-1.104zm39.1-5.842c2.821 0 4.937.782 6.348 2.346 1.411 1.564 2.116 3.818 2.116 6.762v15.732h-9.154V44.165c0-1.043-.276-1.87-.828-2.484-.521-.644-1.273-.966-2.254-.966-1.135 0-2.055.368-2.76 1.104-.705.736-1.058 1.64-1.058 2.714v14.26H159.8V34.505h7.498l.598 3.68c.951-1.288 2.193-2.315 3.726-3.082a11.045 11.045 0 014.922-1.15zm36.201 24.84l-.782-3.45c-1.778 2.668-4.354 4.002-7.728 4.002-3.281 0-5.811-1.073-7.59-3.22-1.778-2.147-2.668-5.32-2.668-9.522 0-4.17.89-7.314 2.668-9.43 1.779-2.147 4.309-3.22 7.59-3.22 2.791 0 5.06.935 6.808 2.806V25.443h9.154v33.35h-7.452zm-5.658-18.078c-2.637 0-3.956 1.58-3.956 4.738v2.438c0 3.128 1.319 4.692 3.956 4.692 1.35 0 2.362-.475 3.036-1.426.675-.95 1.012-2.193 1.012-3.726v-1.518c0-1.533-.337-2.775-1.012-3.726-.674-.981-1.686-1.472-3.036-1.472zm35.834-6.762c4.263 0 7.605 1.089 10.028 3.266 2.453 2.147 3.68 5.29 3.68 9.43s-1.227 7.299-3.68 9.476c-2.423 2.147-5.765 3.22-10.028 3.22-4.263 0-7.605-1.073-10.028-3.22-2.423-2.147-3.634-5.305-3.634-9.476 0-4.17 1.211-7.33 3.634-9.476 2.423-2.147 5.765-3.22 10.028-3.22zm0 6.21c-3.005 0-4.508 1.733-4.508 5.198v2.622c0 3.435 1.503 5.152 4.508 5.152 3.036 0 4.554-1.717 4.554-5.152v-2.622c0-3.465-1.518-5.198-4.554-5.198zm37.49-6.256c.705 0 1.334.092 1.886.276.552.153.828.245.828.276v7.682h-2.944c-1.902 0-3.282.49-4.14 1.472-.828.981-1.242 2.438-1.242 4.37v10.81h-9.154V34.505h7.498l.598 3.68c.552-1.41 1.426-2.469 2.622-3.174 1.196-.736 2.545-1.104 4.048-1.104z" fill="url(#paint8_linear_932_4999)"/><path d="M299.93 58.793l-11.224-31.648h10.856l6.348 21.16h.184l6.394-21.16h10.396l-11.178 31.648H299.93zm41.379-24.84c4.447 0 7.835 1.043 10.166 3.128 2.361 2.085 3.542 5.275 3.542 9.568v1.564h-18.216c0 1.748.383 3.067 1.15 3.956.797.89 2.039 1.334 3.726 1.334 1.533 0 2.653-.322 3.358-.966.736-.644 1.104-1.503 1.104-2.576h8.878c0 2.944-1.119 5.244-3.358 6.9-2.239 1.656-5.505 2.484-9.798 2.484-4.508 0-8.004-1.043-10.488-3.128-2.484-2.116-3.726-5.305-3.726-9.568 0-4.17 1.211-7.33 3.634-9.476 2.423-2.147 5.765-3.22 10.028-3.22zm.368 5.842c-2.883 0-4.493 1.365-4.83 4.094h8.924c0-1.257-.368-2.254-1.104-2.99-.705-.736-1.702-1.104-2.99-1.104zm37.122-5.888c.705 0 1.334.092 1.886.276.552.153.828.245.828.276v7.682h-2.944c-1.902 0-3.282.49-4.14 1.472-.828.981-1.242 2.438-1.242 4.37v10.81h-9.154V34.505h7.498l.598 3.68c.552-1.41 1.426-2.469 2.622-3.174 1.196-.736 2.545-1.104 4.048-1.104zm22.987.046c3.251 0 5.995.644 8.234 1.932 2.269 1.257 3.404 3.22 3.404 5.888h-8.51c0-.89-.399-1.518-1.196-1.886-.552-.307-1.242-.46-2.07-.46-2.208 0-3.312.521-3.312 1.564 0 .583.383.997 1.15 1.242.767.245 2.024.506 3.772.782 2.147.307 3.941.675 5.382 1.104a8.432 8.432 0 013.772 2.208c1.073 1.043 1.61 2.515 1.61 4.416 0 3.097-1.165 5.305-3.496 6.624-2.3 1.319-5.321 1.978-9.062 1.978-2.147 0-4.171-.291-6.072-.874-1.901-.613-3.45-1.549-4.646-2.806-1.196-1.257-1.794-2.852-1.794-4.784h8.51v.184c.031 1.043.46 1.779 1.288 2.208a6.37 6.37 0 002.714.598c2.545 0 3.818-.598 3.818-1.794 0-.613-.399-1.058-1.196-1.334-.797-.276-2.101-.567-3.91-.874-2.177-.368-3.971-.767-5.382-1.196a8.982 8.982 0 01-3.634-2.162c-1.043-1.043-1.564-2.484-1.564-4.324 0-2.975 1.119-5.09 3.358-6.348 2.269-1.257 5.213-1.886 8.832-1.886zm33.733 0c4.447 0 7.836 1.043 10.166 3.128 2.362 2.085 3.542 5.275 3.542 9.568v1.564h-18.216c0 1.748.384 3.067 1.15 3.956.798.89 2.04 1.334 3.726 1.334 1.534 0 2.653-.322 3.358-.966.736-.644 1.104-1.503 1.104-2.576h8.878c0 2.944-1.119 5.244-3.358 6.9-2.238 1.656-5.504 2.484-9.798 2.484-4.508 0-8.004-1.043-10.488-3.128-2.484-2.116-3.726-5.305-3.726-9.568 0-4.17 1.212-7.33 3.634-9.476 2.423-2.147 5.766-3.22 10.028-3.22zm.368 5.842c-2.882 0-4.492 1.365-4.83 4.094h8.924c0-1.257-.368-2.254-1.104-2.99-.705-.736-1.702-1.104-2.99-1.104z" fill="url(#paint9_linear_932_4999)"/></g><defs><linearGradient id="paint0_linear_932_4999" x1="17.206" y1="15.969" x2="17.206" y2="19.724" gradientUnits="userSpaceOnUse"><stop/><stop offset="1" stop-color="#5E0060"/></linearGradient><linearGradient id="paint1_linear_932_4999" x1="40.1" y1="23.672" x2="39.499" y2="40.296" gradientUnits="userSpaceOnUse"><stop/><stop offset="1" stop-color="#5E0060"/></linearGradient><linearGradient id="paint2_linear_932_4999" x1="66.961" y1="47.888" x2="66.961" y2="55.398" gradientUnits="userSpaceOnUse"><stop/><stop offset="1" stop-color="#000A60"/></linearGradient><linearGradient id="paint3_linear_932_4999" x1="23.776" y1="10.336" x2="23.776" y2="46.01" gradientUnits="userSpaceOnUse"><stop offset=".073" stop-color="#E7A036"/><stop offset=".422" stop-color="#F1BE07"/><stop offset="1" stop-color="#F7F8CE"/></linearGradient><linearGradient id="paint4_linear_932_4999" x1="23.776" y1="10.336" x2="23.776" y2="46.01" gradientUnits="userSpaceOnUse"><stop/><stop offset="1" stop-color="#06083A"/></linearGradient><linearGradient id="paint5_linear_932_4999" x1="50.062" y1="21.602" x2="50.062" y2="66.663" gradientUnits="userSpaceOnUse"><stop offset=".073" stop-color="#E2A54A"/><stop offset=".422" stop-color="#F1BE07"/><stop offset="1" stop-color="#F7F8CE"/></linearGradient><linearGradient id="paint6_linear_932_4999" x1="50.062" y1="21.602" x2="50.062" y2="66.663" gradientUnits="userSpaceOnUse"><stop/><stop offset="1" stop-color="#000460"/></linearGradient><linearGradient id="paint7_linear_932_4999" x1="39.737" y1="15.969" x2="39.737" y2="57.276" gradientUnits="userSpaceOnUse"><stop/><stop offset="1" stop-color="#020060"/></linearGradient><linearGradient id="paint8_linear_932_4999" x1="267.691" y1="18.793" x2="267.691" y2="68.793" gradientUnits="userSpaceOnUse"><stop stop-color="#3A3A5E"/><stop offset="1" stop-color="#3A3A5E"/></linearGradient><linearGradient id="paint9_linear_932_4999" x1="267.691" y1="18.793" x2="267.691" y2="68.793" gradientUnits="userSpaceOnUse"><stop stop-color="#FFB301"/><stop offset="1" stop-color="#FF9401"/></linearGradient><filter id="filter0_d_932_4999" x="75.085" y="16.055" width="402.305" height="71.453" filterUnits="userSpaceOnUse" color-interpolation-filters="sRGB"><feFlood flood-opacity="0" result="BackgroundImageFix"/><feColorMatrix in="SourceAlpha" values="0 0 0 0 0 0 0 0 0 0 0 0 0 0 0 0 0 0 127 0" result="hardAlpha"/><feOffset dx="9.388" dy="9.388"/><feGaussianBlur stdDeviation="9.388"/><feComposite in2="hardAlpha" operator="out"/><feColorMatrix values="0 0 0 0 1 0 0 0 0 0.580392 0 0 0 0 0.00392157 0 0 0 0.1 0"/><feBlend in2="BackgroundImageFix" result="effect1_dropShadow_932_4999"/><feBlend in="SourceGraphic" in2="effect1_dropShadow_932_4999" result="shape"/></filter></defs></svg>