<svg width="342" height="83" fill="none" xmlns="http://www.w3.org/2000/svg"><path d="M24.652 22.903l1.127.366.733-2.254-1.127-.366-.733 2.254zM9.466 17.467a1.185 1.185 0 001.064 2.118l-1.064-2.118zm15.919 3.182c-.74-.24-1.776-.67-3.063-1.185-1.259-.505-2.71-1.074-4.192-1.55-1.477-.475-3.028-.873-4.488-1.019-1.444-.144-2.927-.055-4.176.572l1.064 2.118c.674-.338 1.636-.455 2.876-.331 1.224.122 2.596.465 3.999.916 1.397.45 2.783.991 4.035 1.493 1.225.492 2.374.967 3.212 1.24l.733-2.254z" fill="url(#paint0_linear_918_5002)"/><path d="M53.616 42.847L26.412 25.218" stroke="url(#paint1_linear_918_5002)" stroke-width="2.37" stroke-linecap="round"/><path d="M68.704 56.434l-1.017.61 1.22 2.032 1.016-.61-1.22-2.032zm-3.637-7.505a1.185 1.185 0 00-1.24 2.02l1.24-2.02zm4.856 9.537a2.723 2.723 0 001.262-1.72c.18-.76.051-1.583-.33-2.403-.744-1.604-2.549-3.425-5.788-5.414l-1.24 2.02c3.105 1.906 4.429 3.423 4.879 4.392.216.466.201.738.173.856a.354.354 0 01-.175.237l1.22 2.032z" fill="url(#paint2_linear_918_5002)"/><path d="M23.564 14.075l.522-1.687.508 1.687c1.96 6.51 6.893 12.066 13.684 15.411l1.76.61-1.76.867c-6.791 3.346-11.725 8.902-13.684 15.411l-.508 1.688-.522-1.688c-1.96-6.51-6.893-12.065-13.685-15.41l-1.76-.868 1.76-.61c5.6-2.758 9.936-7.02 12.384-12.079.521-1.077.957-2.19 1.3-3.332z" fill="url(#paint3_linear_918_5002)"/><path d="M23.564 14.075l.522-1.687.508 1.687c1.96 6.51 6.893 12.066 13.684 15.411l1.76.61-1.76.867c-6.791 3.346-11.725 8.902-13.684 15.411l-.508 1.688-.522-1.688c-1.96-6.51-6.893-12.065-13.685-15.41l-1.76-.868 1.76-.61c5.6-2.758 9.936-7.02 12.384-12.079.521-1.077.957-2.19 1.3-3.332z" stroke="#79627D" stroke-width="2.37"/><path d="M23.564 14.075l.522-1.687.508 1.687c1.96 6.51 6.893 12.066 13.684 15.411l1.76.61-1.76.867c-6.791 3.346-11.725 8.902-13.684 15.411l-.508 1.688-.522-1.688c-1.96-6.51-6.893-12.065-13.685-15.41l-1.76-.868 1.76-.61c5.6-2.758 9.936-7.02 12.384-12.079.521-1.077.957-2.19 1.3-3.332z" stroke="url(#paint4_linear_918_5002)" stroke-width="2.37"/><path d="M49.729 25.785l.645-2.132.627 2.132c2.42 8.223 8.515 15.24 16.904 19.466l2.174.77-2.174 1.096c-8.389 4.226-14.483 11.244-16.904 19.467l-.627 2.131-.645-2.131c-2.42-8.223-8.515-15.241-16.904-19.467l-2.175-1.095 2.175-.77c8.389-4.226 14.483-11.244 16.904-19.467z" fill="url(#paint5_linear_918_5002)"/><path d="M49.729 25.785l.645-2.132.627 2.132c2.42 8.223 8.515 15.24 16.904 19.466l2.174.77-2.174 1.096c-8.389 4.226-14.483 11.244-16.904 19.467l-.627 2.131-.645-2.131c-2.42-8.223-8.515-15.241-16.904-19.467l-2.175-1.095 2.175-.77c8.389-4.226 14.483-11.244 16.904-19.467z" stroke="#79627D" stroke-width="2.37"/><path d="M49.729 25.785l.645-2.132.627 2.132c2.42 8.223 8.515 15.24 16.904 19.466l2.174.77-2.174 1.096c-8.389 4.226-14.483 11.244-16.904 19.467l-.627 2.131-.645-2.131c-2.42-8.223-8.515-15.241-16.904-19.467l-2.175-1.095 2.175-.77c8.389-4.226 14.483-11.244 16.904-19.467z" stroke="url(#paint6_linear_918_5002)" stroke-width="2.37"/><path d="M10.817 18.02c-4.68 4.306 11.774 15.548 21.849 22.839 10.074 7.934 30.65 22.702 36.476 16.59" stroke="url(#paint7_linear_918_5002)" stroke-width="2.37" stroke-linecap="round"/><path d="M89.946 56h-5.57c-.135 0-.21-.075-.225-.225l-6.356-31.602c-.03-.12.03-.18.18-.18h5.21c.12 0 .195.06.225.18l3.774 21.068 3.683-21.068c.03-.12.105-.18.225-.18h5.143c.165 0 .225.06.18.18l-6.244 31.602c-.015.15-.09.225-.225.225zm28.08 0h-14.223c-.114 0-.172-.072-.172-.215l.043-30.228c0-.115.058-.172.172-.172h14.137c.114 0 .172.071.172.215v4.92c0 .114-.058.171-.172.171h-9.024v6.875h9.024c.114 0 .172.058.172.172l.043 4.985c0 .114-.058.172-.172.172h-9.067v7.69h9.067c.114 0 .172.073.172.216v5.027c0 .115-.058.172-.172.172zm13.273 0h-4.404c-.23 0-.344-.1-.344-.3l-.043-29.972c0-.229.114-.343.344-.343h3.974l7.434 17.338-.215-16.994c0-.23.129-.344.387-.344h4.361c.172 0 .258.114.258.343l.043 30.014c0 .172-.072.258-.215.258h-3.867l-7.627-16.2.322 15.856c0 .23-.136.344-.408.344zm28.119-.043l-7.885.043c-.143 0-.215-.072-.215-.215l.086-30.228c0-.115.057-.172.172-.172l8.228-.043c1.633-.043 3.108.33 4.426 1.117a8.85 8.85 0 013.18 3.201c.802 1.332 1.203 2.807 1.203 4.426v12.633c0 1.69-.408 3.237-1.225 4.64a9.559 9.559 0 01-3.308 3.33c-1.375.817-2.929 1.24-4.662 1.268zm.386-25.352l-3.072.043-.043 19.938h2.729c1.088 0 2.005-.38 2.75-1.139.744-.759 1.117-1.668 1.117-2.728V34.043c0-.931-.344-1.74-1.031-2.428-.688-.702-1.504-1.038-2.45-1.01zm24.81 25.825c-1.561 0-3-.401-4.318-1.203a9.385 9.385 0 01-3.158-3.202c-.788-1.346-1.182-2.821-1.182-4.425l.043-13.944c0-1.633.394-3.1 1.182-4.404a8.83 8.83 0 013.137-3.158 8.11 8.11 0 014.296-1.203c1.605 0 3.044.394 4.319 1.181a8.903 8.903 0 013.094 3.18c.787 1.318 1.181 2.786 1.181 4.404l.043 13.944c0 1.604-.387 3.072-1.16 4.404a9.137 9.137 0 01-3.137 3.223c-1.303.802-2.75 1.203-4.34 1.203zm0-5.307c.888 0 1.662-.358 2.321-1.074.659-.73.988-1.547.988-2.45l-.043-13.943c0-.974-.308-1.797-.924-2.47-.616-.674-1.396-1.01-2.342-1.01-.902 0-1.675.33-2.32.988-.644.659-.967 1.49-.967 2.492V47.6c0 .96.323 1.79.967 2.492.645.687 1.418 1.031 2.32 1.031zM206.137 56h-4.984c-.114 0-.172-.072-.172-.215l.086-30.228c0-.115.057-.172.172-.172h8.895c1.589 0 3.05.386 4.382 1.16a8.843 8.843 0 013.18 3.115c.802 1.303 1.203 2.779 1.203 4.426 0 1.074-.164 2.048-.494 2.922-.329.873-.716 1.611-1.16 2.213-.43.601-.824 1.045-1.182 1.332 1.59 1.762 2.385 3.831 2.385 6.209l.043 9.023c0 .143-.072.215-.215.215h-4.984c-.115 0-.172-.043-.172-.129v-9.11c0-1.06-.372-1.976-1.117-2.75-.745-.773-1.662-1.16-2.75-1.16h-2.901l-.043 12.934c0 .143-.057.215-.172.215zm3.997-25.352h-3.782v6.918h3.782c.902 0 1.704-.336 2.406-1.01.716-.672 1.074-1.496 1.074-2.47 0-.931-.344-1.733-1.031-2.406-.688-.688-1.504-1.032-2.449-1.032z" fill="url(#paint8_linear_918_5002)"/><path d="M237.423 56h-5.57c-.135 0-.21-.075-.225-.225l-6.356-31.602c-.03-.12.03-.18.18-.18h5.211c.119 0 .194.06.224.18l3.774 21.068 3.683-21.068c.03-.12.105-.18.225-.18h5.143c.165 0 .225.06.18.18l-6.244 31.602c-.015.15-.09.225-.225.225zm26.028 0h-14.869c-.12 0-.18-.075-.18-.225l.045-31.602c0-.12.06-.18.18-.18h14.779c.12 0 .18.075.18.225v5.143c0 .12-.06.18-.18.18h-9.434v7.187h9.434c.12 0 .18.06.18.18l.045 5.211c0 .12-.06.18-.18.18h-9.479v8.04h9.479c.12 0 .18.076.18.226v5.255c0 .12-.06.18-.18.18zm14.258 0h-5.211c-.12 0-.179-.075-.179-.225l.089-31.602c0-.12.06-.18.18-.18h9.299c1.662 0 3.189.405 4.582 1.213a9.232 9.232 0 013.324 3.257c.839 1.363 1.258 2.905 1.258 4.627 0 1.123-.172 2.141-.517 3.054-.344.914-.748 1.685-1.213 2.314-.449.629-.861 1.093-1.235 1.393 1.662 1.841 2.493 4.005 2.493 6.49l.045 9.434c0 .15-.075.225-.224.225h-5.211c-.12 0-.18-.045-.18-.135v-9.523c0-1.108-.389-2.067-1.168-2.875-.779-.809-1.737-1.213-2.875-1.213h-3.032l-.045 13.521c0 .15-.06.225-.18.225zm4.178-26.504h-3.953v7.232h3.953c.943 0 1.782-.351 2.516-1.055.748-.704 1.123-1.565 1.123-2.583 0-.974-.36-1.812-1.079-2.516-.718-.719-1.572-1.078-2.56-1.078zm25.039 26.953a8.518 8.518 0 01-4.514-1.258 9.616 9.616 0 01-3.28-3.346c-.808-1.408-1.212-2.95-1.212-4.627v-2.112c0-.164.074-.247.224-.247h5.166c.12 0 .18.083.18.247v2.112c0 1.003.337 1.871 1.011 2.605.673.719 1.482 1.078 2.425 1.078.959 0 1.775-.367 2.449-1.1.673-.749 1.01-1.61 1.01-2.583 0-1.123-.733-2.104-2.201-2.943a17.38 17.38 0 00-.943-.539 37.54 37.54 0 00-1.348-.763l-1.527-.831a76.547 76.547 0 00-1.438-.809c-1.677-.988-2.927-2.224-3.751-3.706-.808-1.497-1.213-3.175-1.213-5.031 0-1.707.42-3.25 1.258-4.627a9.418 9.418 0 013.28-3.235 8.515 8.515 0 014.424-1.213c1.633 0 3.13.405 4.493 1.213a9.353 9.353 0 013.256 3.28c.824 1.362 1.236 2.89 1.236 4.582v3.773c0 .12-.06.18-.18.18h-5.166c-.12 0-.18-.06-.18-.18l-.045-3.773c0-1.078-.336-1.954-1.01-2.628-.674-.674-1.475-1.011-2.404-1.011-.943 0-1.752.36-2.425 1.078a3.616 3.616 0 00-1.011 2.56c0 1.004.209 1.843.629 2.516.434.674 1.22 1.318 2.358 1.932a99.5 99.5 0 012.269 1.258c.539.284 1.025.546 1.46.786.434.224.696.36.786.404 1.527.854 2.733 1.902 3.616 3.145.898 1.243 1.348 2.77 1.348 4.582 0 1.752-.405 3.324-1.213 4.717a9.243 9.243 0 01-3.28 3.301c-1.362.809-2.875 1.213-4.537 1.213zM338.794 56h-14.869c-.12 0-.18-.075-.18-.225l.045-31.602c0-.12.06-.18.18-.18h14.779c.12 0 .18.075.18.225v5.143c0 .12-.06.18-.18.18h-9.434v7.187h9.434c.12 0 .18.06.18.18l.045 5.211c0 .12-.06.18-.18.18h-9.479v8.04h9.479c.12 0 .18.076.18.226v5.255c0 .12-.06.18-.18.18z" fill="url(#paint9_linear_918_5002)"/><defs><linearGradient id="paint0_linear_918_5002" x1="17.508" y1="18.02" x2="17.508" y2="21.776" gradientUnits="userSpaceOnUse"><stop/><stop offset="1" stop-color="#5E0060"/></linearGradient><linearGradient id="paint1_linear_918_5002" x1="40.403" y1="25.724" x2="39.802" y2="42.348" gradientUnits="userSpaceOnUse"><stop/><stop offset="1" stop-color="#5E0060"/></linearGradient><linearGradient id="paint2_linear_918_5002" x1="67.264" y1="49.94" x2="67.264" y2="57.45" gradientUnits="userSpaceOnUse"><stop/><stop offset="1" stop-color="#000A60"/></linearGradient><linearGradient id="paint3_linear_918_5002" x1="24.079" y1="12.388" x2="24.079" y2="48.062" gradientUnits="userSpaceOnUse"><stop offset=".073" stop-color="#E7A036"/><stop offset=".422" stop-color="#F1BE07"/><stop offset="1" stop-color="#F7F8CE"/></linearGradient><linearGradient id="paint4_linear_918_5002" x1="24.079" y1="12.388" x2="24.079" y2="48.062" gradientUnits="userSpaceOnUse"><stop/><stop offset="1" stop-color="#06083A"/></linearGradient><linearGradient id="paint5_linear_918_5002" x1="50.365" y1="23.653" x2="50.365" y2="68.715" gradientUnits="userSpaceOnUse"><stop offset=".073" stop-color="#E2A54A"/><stop offset=".422" stop-color="#F1BE07"/><stop offset="1" stop-color="#F7F8CE"/></linearGradient><linearGradient id="paint6_linear_918_5002" x1="50.365" y1="23.653" x2="50.365" y2="68.715" gradientUnits="userSpaceOnUse"><stop/><stop offset="1" stop-color="#000460"/></linearGradient><linearGradient id="paint7_linear_918_5002" x1="40.039" y1="18.02" x2="40.039" y2="59.327" gradientUnits="userSpaceOnUse"><stop/><stop offset="1" stop-color="#020060"/></linearGradient><linearGradient id="paint8_linear_918_5002" x1="209.391" y1="0" x2="209.391" y2="83" gradientUnits="userSpaceOnUse"><stop stop-color="#3A3A5E"/><stop offset="1" stop-color="#3A3A5E"/></linearGradient><linearGradient id="paint9_linear_918_5002" x1="209.391" y1="0" x2="209.391" y2="83" gradientUnits="userSpaceOnUse"><stop stop-color="#FFB301"/><stop offset="1" stop-color="#FF9401"/></linearGradient></defs></svg>