<svg xmlns="http://www.w3.org/2000/svg" viewBox="0 0 55.32 38.52"><path d="M3.09.06h49.13c1.67 0 3.03 1.36 3.03 3.03v16.17H.06V3.09C.06 1.42 1.42.06 3.09.06z" fill="#fff"/><path d="M.06 19.26h55.2v16.17c0 1.67-1.36 3.03-3.03 3.03H3.09a3.04 3.04 0 01-3.03-3.03V19.26z" fill="#d52b1e"/><path fill="#0039a6" d="M.06 12.86h55.2v12.8H.06v-12.8z"/><path d="M3.09.06h49.13c1.67 0 3.03 1.36 3.03 3.03v32.33c0 1.67-1.36 3.03-3.03 3.03H3.09a3.04 3.04 0 01-3.03-3.03V3.09C.06 1.42 1.42.06 3.09.06h0z" fill="none" stroke="#ccc" stroke-width=".12" stroke-miterlimit="2.613"/></svg>