<?xml version="1.0" encoding="utf-8"?>
<!-- Generator: Adobe Illustrator 26.0.1, SVG Export Plug-In . SVG Version: 6.00 Build 0)  -->
<svg version="1.1" id="πœ_xBA_h_x5F_1" xmlns="http://www.w3.org/2000/svg" xmlns:xlink="http://www.w3.org/1999/xlink" x="0px"
	 y="0px" width="153px" height="50px" viewBox="0 0 153 50" style="enable-background:new 0 0 153 50;" xml:space="preserve">
<style type="text/css">
	.st0{fill:#0065AC;}
	.st1{fill:#FFFFFF;}
</style>
<g>
	<path class="st0" d="M25,0c-3.8,0-7.4,0.9-10.6,2.4h21.3C32.4,0.9,28.8,0,25,0z M17,4.8h-6.7c-1,0.7-1.9,1.5-2.8,2.4h6.1
		C14.6,6.3,15.8,5.5,17,4.8z M29.7,11.9h16.5c-0.5-0.8-1.1-1.6-1.7-2.4H29.7V11.9z M11.3,9.5h-6c-0.6,0.8-1.2,1.6-1.7,2.4h6
		C10.2,11.1,10.7,10.3,11.3,9.5z M29.7,7.2h12.7c-0.9-0.9-1.8-1.7-2.8-2.4h-9.9V7.2z M49.9,25c0-0.4,0-0.8,0-1.2h-8.6
		c-0.3-0.8-0.7-1.6-1.2-2.4h9.5c-0.1-0.8-0.3-1.6-0.5-2.4H38.5c-0.7-0.9-1.5-1.6-2.3-2.4h12.3c-0.3-0.8-0.6-1.6-1-2.4H20.1v11.9h9.6
		v11.9H3.7c0.5,0.8,1.1,1.6,1.7,2.4h14.8v2.4H7.5c0.9,0.9,1.8,1.7,2.8,2.4h9.8v2.4h-5.8C17.5,49.1,21.1,50,25,50
		c3.8,0,7.4-0.8,10.6-2.4h-2.7c1.2-0.7,2.3-1.5,3.3-2.4h3.4c1-0.7,1.9-1.5,2.8-2.4h-3.9c0.6-0.7,1.1-1.5,1.6-2.4h4.4
		c0.6-0.8,1.2-1.5,1.7-2.4h-4.9c0.3-0.8,0.6-1.6,0.8-2.4h5.4c0.4-0.8,0.7-1.6,1-2.4h-6c0.1-0.8,0.1-1.6,0.1-2.4c0,0,0,0,0,0h6.5
		c0.2-0.8,0.3-1.6,0.5-2.4h-7.1c-0.1-0.8-0.3-1.6-0.5-2.4h7.8C49.9,25.8,49.9,25.4,49.9,25z M11.3,33.3H1.4c0.3,0.8,0.6,1.6,1,2.4
		h11.2C12.8,35,12,34.2,11.3,33.3z M8.6,28.6H0.3c0.1,0.8,0.3,1.6,0.5,2.4h9C9.3,30.2,8.9,29.4,8.6,28.6z M7.2,21.4
		c0-0.8,0.1-1.6,0.1-2.4H0.7c-0.2,0.8-0.3,1.6-0.5,2.4H7.2L7.2,21.4z M8.6,14.3H2.4c-0.4,0.8-0.7,1.6-1,2.4h6.4
		C8,15.9,8.2,15.1,8.6,14.3z M7.3,23.8H0c0,0.4,0,0.8,0,1.2c0,0.4,0,0.8,0,1.2h7.7C7.6,25.4,7.4,24.6,7.3,23.8z"/>
	<path d="M69.2,40.5c-0.5,0.3-1.3,0.6-2.8,0.6c-2.4,0-4-1.9-4-4.1c0-2.2,1.6-4.1,4-4.1c1.6,0,2.3,0.4,2.7,0.6l-0.4,0.9
		c-0.3-0.1-0.9-0.5-2.2-0.5c-1.4,0-2.7,1.3-2.7,3.1c0,1.7,1.3,3,2.8,3c1.2,0,1.8-0.3,2.2-0.5L69.2,40.5z M73.6,41v-3.4
		c0-0.5-0.2-0.9-0.8-0.9c-0.6,0-1.1,0.4-1.3,0.5V41h-1.3v-7.5l1.3-0.3v3.2c0.2-0.2,0.8-0.7,1.9-0.7c1,0,1.5,0.7,1.5,1.6V41H73.6z
		 M97.6,41v-3.4c0-0.5-0.2-0.9-0.8-0.9c-0.6,0-1.1,0.4-1.3,0.5V41h-1.3v-7.5l1.3-0.3v3.2c0.2-0.2,0.8-0.7,1.9-0.7
		c1,0,1.5,0.7,1.5,1.6V41H97.6z M85.6,41v-3.4c0-0.5-0.2-0.9-0.8-0.9c-0.6,0-1.1,0.4-1.3,0.5V41h-1.3v-4.9l1.2-0.3l0,0.5
		c0.2-0.2,0.8-0.7,1.9-0.7c1,0,1.6,0.6,1.6,1.6V41H85.6z M89.8,39.1c-0.3,0-0.9,0.1-0.9,0.5c0,0.5,0.5,0.5,0.9,0.5h1.5
		c1.1,0,2,0.7,1.8,1.8c-0.1,1.2-1.5,2-2.7,2c-1.3,0-2.8-0.3-2.8-1.5c0-0.8,0.6-1.2,0.9-1.4c-0.2-0.1-0.7-0.4-0.7-1.1
		c0-0.6,0.5-1.2,0.9-1.3c-0.3-0.2-0.6-0.5-0.6-1.2c0-0.8,0.6-1.7,2-1.7c0.6,0,0.8,0.1,1,0.1h2v0.7h-1.1c0.1,0.1,0.4,0.4,0.4,0.9
		c0,1.1-1,1.7-2.1,1.7H89.8z M88.7,42.3c0,0.6,0.9,0.8,1.7,0.8c0.8,0,1.6-0.5,1.7-1c0.1-0.6-0.3-0.9-0.8-0.9h-1.7
		C89.2,41.3,88.7,41.7,88.7,42.3z M89.3,37.4c0,0.5,0.3,0.9,1,0.9c0.6,0,0.9-0.4,0.9-0.9c0-0.4-0.3-0.9-0.9-0.9
		C89.7,36.5,89.3,37,89.3,37.4z M102.3,35.8h1.2l1.1,3.4l1.2-3.4h1.1l-2,5.3h-0.7l-0.9-2.7l-1,2.7h-0.7l-1.9-5.3h1.2l1.2,3.5l0.8-2
		L102.3,35.8z M108.8,41.2c-1,0-1.6-0.6-1.6-1.4c0-0.9,0.7-1.7,2-1.7l1.1-0.1v-0.4c0-0.5-0.2-0.9-1-0.9c-0.7,0-1.2,0.2-1.5,0.3
		l-0.3-0.7c0.3-0.2,1.1-0.5,2.1-0.5c1.2,0,1.8,0.6,1.8,1.5v3c0,0.3,0.1,0.7,0.2,0.8h-1.3c-0.1-0.1-0.1-0.4-0.1-0.5
		C110.1,40.8,109.6,41.2,108.8,41.2z M110.3,38.6l-0.7,0.1c-0.7,0.1-1.2,0.3-1.2,0.9c0,0.5,0.4,0.7,0.9,0.7c0.5,0,0.8-0.3,1.1-0.5
		V38.6z M77.5,35.8v3.4c0,0.5,0.2,0.9,0.8,0.9c0.6,0,1-0.3,1.3-0.5v-3.8h1.3v4.9L79.6,41l0-0.5c-0.2,0.2-0.8,0.7-1.8,0.7
		c-1,0-1.5-0.6-1.5-1.6v-3.7H77.5z M113.4,33.2h6.4v1h-2.5V41h-1.4v-6.9h-2.5V33.2z M121.6,40.3c0.8,0,1.2-0.2,1.4-0.3l0.3,0.7
		c-0.3,0.1-0.8,0.4-2.1,0.4c-1.6,0-2.6-1-2.6-2.7c0-1.6,1.1-2.8,2.5-2.8c1.3,0,2.4,0.9,2.4,2.8h-3.6
		C119.9,39.6,120.5,40.3,121.6,40.3z M121,36.6c-0.7,0-1,0.5-1.1,1.2h2.2C122.1,37,121.7,36.6,121,36.6z M124.5,33.5l1.3-0.3V41
		h-1.3V33.5z M129.9,40.3c0.8,0,1.2-0.2,1.4-0.3l0.3,0.7c-0.3,0.1-0.8,0.4-2.1,0.4c-1.6,0-2.6-1-2.6-2.7c0-1.6,1.1-2.8,2.5-2.8
		c1.3,0,2.4,0.9,2.4,2.8h-3.6C128.2,39.6,128.8,40.3,129.9,40.3z M129.4,36.6c-0.7,0-1,0.5-1.1,1.2h2.2
		C130.4,37,130,36.6,129.4,36.6z M135.3,35.7c1,0,1.5,0.2,1.8,0.3l-0.3,0.8c-0.3-0.1-0.6-0.2-1.3-0.2c-0.7,0-1.6,0.6-1.6,1.9
		c0,1.2,0.9,1.9,1.6,1.9c0.7,0,1.1-0.1,1.4-0.2l0.3,0.8c-0.3,0.1-0.8,0.3-1.8,0.3c-1.7,0-2.8-1.1-2.8-2.7
		C132.6,36.8,133.9,35.7,135.3,35.7z M143.2,38.4c0,1.7-1.2,2.7-2.8,2.7c-1.6,0-2.8-1.1-2.8-2.7c0-1.7,1.2-2.7,2.8-2.7
		C142,35.7,143.2,36.8,143.2,38.4z M138.9,38.4c0,1.1,0.6,1.9,1.5,1.9c0.8,0,1.5-0.8,1.5-1.9c0-1.1-0.6-1.9-1.5-1.9
		C139.4,36.6,138.9,37.3,138.9,38.4z M151.8,41h-1.3v-3.4c0-0.5-0.2-0.9-0.8-0.9c-0.5,0-0.9,0.3-1.1,0.5V41h-1.3v-3.4
		c0-0.5-0.2-0.9-0.8-0.9c-0.4,0-0.9,0.3-1.1,0.5V41h-1.3v-4.9l1.2-0.3l0,0.6c0.3-0.2,0.8-0.7,1.6-0.7c0.7,0,1.1,0.2,1.3,0.7
		c0.3-0.3,0.9-0.7,1.8-0.7c1,0,1.6,0.7,1.6,1.6V41z"/>
	<g>
		<path d="M137.4,9.4c0.3,0.1,0.5,0.2,0.6,0.4c0.1,0.2,0.2,0.5,0.1,0.8c-0.3,1.6-0.7,2.9-1.1,4v12.5c0,0.3-0.1,0.5-0.3,0.7
			c-0.2,0.2-0.4,0.3-0.7,0.3c-0.3,0-0.5-0.1-0.7-0.3c-0.2-0.2-0.3-0.4-0.3-0.7c0,0,0-8.6,0-9c-0.5,0.7-0.7,0.7-1,0.8
			c-0.2,0-0.5,0-0.6-0.2c-0.2-0.2-0.3-0.4-0.3-0.6c0-0.2,0.1-0.5,0.3-0.7c1.5-2.2,2.4-4.5,2.8-7c0-0.3,0.2-0.6,0.4-0.7
			C136.8,9.5,137.1,9.4,137.4,9.4z M140.3,21.2h10.2c0.4,0,0.8,0.1,1,0.4c0.3,0.3,0.4,0.5,0.4,0.8v3.9c0,0.4-0.2,0.7-0.5,1
			c-0.3,0.3-0.6,0.4-0.9,0.4h-10.2c-0.4,0-0.6-0.1-0.9-0.4c-0.3-0.3-0.3-0.6-0.3-1v-3.9c0-0.3,0.1-0.6,0.3-0.8
			C139.7,21.4,140,21.2,140.3,21.2z M141.5,23c-0.3,0-0.4,0.1-0.4,0.1c-0.1,0.1-0.1,0.2-0.1,0.4c0,0,0,1.9,0,1.9
			c0,0.2,0.1,0.3,0.1,0.4c0.1,0.1,0.2,0.2,0.4,0.2h8c0.2,0,0.4-0.1,0.5-0.1c0.1-0.1,0.1-0.2,0.1-0.4v-1.9c0-0.2,0-0.3-0.1-0.4
			c-0.1-0.1-0.2-0.2-0.5-0.2H141.5z M140.2,18.3c-0.3,0-0.5,0.1-0.7,0.3c-0.2,0.2-0.2,0.4-0.2,0.6c0,0.2,0.1,0.5,0.2,0.6
			c0.2,0.2,0.4,0.3,0.7,0.3h10.6c0.3,0,0.5-0.1,0.6-0.3c0.2-0.2,0.2-0.4,0.2-0.6c0-0.2-0.1-0.5-0.2-0.6c-0.1-0.1-0.3-0.2-0.6-0.2
			H140.2z M140.2,15.5c-0.3,0-0.5,0.1-0.7,0.3c-0.2,0.2-0.2,0.4-0.2,0.6c0,0.2,0.1,0.5,0.2,0.6c0.2,0.2,0.4,0.3,0.7,0.3h10.6
			c0.3,0,0.5-0.1,0.6-0.3c0.2-0.2,0.2-0.4,0.2-0.6c0-0.2-0.1-0.4-0.2-0.6c-0.1-0.2-0.4-0.3-0.6-0.3H140.2z M139,12.7
			c-0.3,0-0.5,0.1-0.7,0.3c-0.1,0.2-0.2,0.4-0.2,0.6c0,0.2,0.1,0.5,0.2,0.6c0.2,0.2,0.3,0.2,0.7,0.2h13.2c0.3,0,0.5-0.1,0.6-0.2
			c0.2-0.2,0.2-0.4,0.2-0.6c0-0.2-0.1-0.5-0.2-0.6c-0.1-0.1-0.3-0.3-0.6-0.3H139z M140.2,9.9c-0.3,0-0.5,0.1-0.7,0.2
			c-0.2,0.2-0.2,0.3-0.2,0.6c0,0.3,0.1,0.5,0.2,0.6c0.1,0.1,0.4,0.2,0.7,0.2h10.6c0.3,0,0.5-0.1,0.6-0.2c0.2-0.2,0.2-0.3,0.2-0.6
			c0-0.3-0.1-0.5-0.2-0.6c-0.1-0.1-0.3-0.2-0.6-0.2H140.2z"/>
		<path d="M105.6,11.3c0,0.2-0.1,0.4-0.2,0.6c-0.2,0.2-0.4,0.3-0.6,0.3h-4.2v0.1c0,0.3-0.1,0.5-0.3,0.7c-0.2,0.2-0.4,0.3-0.7,0.3
			c-0.3,0-0.5-0.1-0.7-0.3c-0.2-0.2-0.3-0.4-0.3-0.7v-0.1h-5.2v0.1c0,0.3-0.1,0.5-0.3,0.7c-0.2,0.2-0.4,0.3-0.7,0.3
			c-0.3,0-0.5-0.1-0.7-0.3c-0.2-0.2-0.3-0.4-0.3-0.7v-0.1h-4.2c-0.3,0-0.5-0.1-0.6-0.2c-0.2-0.2-0.2-0.4-0.2-0.6
			c0-0.2,0.1-0.5,0.2-0.6c0.1-0.1,0.3-0.2,0.6-0.2h4.2v-0.4c0-0.3,0.1-0.5,0.3-0.7c0.2-0.2,0.4-0.3,0.7-0.3c0.3,0,0.5,0.1,0.7,0.3
			c0.2,0.2,0.3,0.4,0.3,0.7v0.4h5.2v-0.4c0-0.3,0.1-0.5,0.3-0.7c0.2-0.2,0.4-0.3,0.7-0.3c0.3,0,0.5,0.1,0.7,0.3
			c0.2,0.2,0.3,0.4,0.3,0.7v0.4h4.2c0.3,0,0.5,0.1,0.6,0.2C105.5,10.9,105.6,11.1,105.6,11.3z M92.4,18.8v1.7h2.9v-1.7H92.4z
			 M97.1,15.3v1.8h2.9v-1.8H97.1z M99.9,19v-0.3h-2.9v1.7h7.2c0.3,0,0.4,0.1,0.6,0.2c0.2,0.2,0.2,0.5,0.2,0.6c0,0.2-0.1,0.4-0.2,0.6
			c-0.2,0.2-0.3,0.3-0.6,0.3h-7.2v1.4h7.7c0.3,0,0.5,0.1,0.6,0.2c0.2,0.2,0.2,0.4,0.2,0.6c0,0.2-0.1,0.5-0.2,0.6
			c-0.1,0.2-0.3,0.2-0.6,0.2h-7.7v1.8c0,0.3-0.1,0.5-0.3,0.7c-0.2,0.2-0.4,0.3-0.7,0.3c-0.3,0-0.5-0.1-0.7-0.3
			c-0.2-0.2-0.3-0.4-0.3-0.7v-1.8h-7.7c-0.3,0-0.5-0.1-0.6-0.2c-0.2-0.2-0.2-0.5-0.2-0.6c0-0.2,0.1-0.4,0.2-0.6
			c0.1-0.1,0.3-0.2,0.6-0.2h7.7v-1.4H88c-0.3,0-0.5-0.1-0.6-0.2c-0.2-0.1-0.2-0.4-0.2-0.6c0-0.2,0.1-0.4,0.2-0.6
			c0.1-0.1,0.4-0.2,0.6-0.2h2.5v-1.7H87c-0.3,0-0.5-0.1-0.6-0.2c-0.2-0.2-0.2-0.4-0.2-0.6c0-0.2,0.1-0.4,0.2-0.6
			c0.1-0.2,0.4-0.2,0.6-0.2h3.6v-0.2c0-0.3,0.1-0.5,0.2-0.7c0.2-0.2,0.4-0.3,0.7-0.3c0.3,0,0.5,0.1,0.7,0.3c0.2,0.2,0.3,0.4,0.3,0.7
			l0,0.2h2.9v-1.8H88c-0.3,0-0.5-0.1-0.6-0.2c-0.2-0.2-0.2-0.5-0.2-0.6c0-0.1,0.1-0.5,0.2-0.6c0.1-0.1,0.4-0.2,0.6-0.2h16.2
			c0.3,0,0.5,0.1,0.6,0.2c0.2,0.2,0.2,0.4,0.2,0.6c0,0.2-0.1,0.4-0.2,0.6c-0.1,0.2-0.3,0.3-0.6,0.3h-2.5v1.8h3.6
			c0.3,0,0.4,0.1,0.6,0.2c0.2,0.2,0.2,0.4,0.2,0.6c0,0.2-0.1,0.4-0.2,0.6c-0.2,0.2-0.3,0.3-0.6,0.3h-3.6l0,0.3
			c0,0.3-0.1,0.5-0.3,0.7c-0.2,0.2-0.4,0.3-0.7,0.3c-0.3,0-0.5-0.1-0.7-0.3C100,19.5,99.9,19.3,99.9,19L99.9,19z"/>
		<path d="M71.1,9.4c-0.2,0.2-0.3,0.4-0.3,0.7v1.4h-6.7c-0.5,0-0.9,0.2-1.3,0.5c-0.3,0.4-0.5,0.8-0.5,1.2c0,0,0,9.6,0,9.7
			c0,0.5,0.2,0.9,0.5,1.2c0.4,0.3,0.8,0.5,1.3,0.5h6.7V27c0,0.4,0.1,0.7,0.3,0.8c0.1,0.1,0.4,0.3,0.7,0.3c0.3,0,0.6-0.1,0.7-0.3
			c0.1-0.1,0.3-0.4,0.3-0.8v-2.3h6.7c0.5,0,1-0.3,1.3-0.5c0.3-0.3,0.5-0.8,0.5-1.2v-9.6c0-0.5-0.2-0.9-0.5-1.2
			c-0.3-0.4-0.8-0.5-1.3-0.5h-6.7v-1.4c0-0.3-0.1-0.6-0.3-0.7c-0.2-0.2-0.5-0.3-0.7-0.3C71.6,9.1,71.3,9.2,71.1,9.4z M64.5,22.6
			c-0.1-0.1-0.2-0.2-0.2-0.4V14c0-0.2,0.1-0.3,0.2-0.4c0.1-0.1,0.3-0.2,0.4-0.2h6v9.3h-6C64.7,22.7,64.6,22.7,64.5,22.6z M78.8,13.4
			c0.2,0,0.3,0.1,0.5,0.2c0.1,0.1,0.2,0.2,0.2,0.4v8.1c0,0.2-0.1,0.3-0.2,0.4c-0.1,0.1-0.2,0.2-0.4,0.2h-6v-9.3H78.8z"/>
		<path d="M116.5,14.6c0.2,0,0.3,0.1,0.5,0.2c0.1,0.1,0.2,0.3,0.2,0.5c0,0.2-0.1,0.3-0.2,0.5c-0.1,0.1-0.3,0.2-0.5,0.2h-3.2
			c-0.2,0-0.4-0.1-0.5-0.2c-0.1-0.1-0.2-0.3-0.2-0.5c0-0.2,0.1-0.3,0.2-0.5c0.1-0.1,0.3-0.2,0.5-0.2H116.5z M117.7,16.6
			c0.2,0,0.3,0.1,0.5,0.2c0.1,0.1,0.2,0.3,0.2,0.5c0,0.2-0.1,0.3-0.2,0.5c-0.1,0.1-0.3,0.2-0.5,0.2h-3.2c-0.2,0-0.4-0.1-0.5-0.2
			c-0.1-0.1-0.2-0.3-0.2-0.5c0-0.2,0.1-0.3,0.2-0.5c0.1-0.1,0.3-0.2,0.5-0.2H117.7z M125.3,14.6c0.2,0,0.3,0.1,0.5,0.2
			c0.1,0.1,0.2,0.3,0.2,0.5c0,0.2-0.1,0.3-0.2,0.5c-0.1,0.1-0.3,0.2-0.5,0.2h-3.2c-0.2,0-0.4-0.1-0.5-0.2c-0.1-0.1-0.2-0.3-0.2-0.5
			c0-0.2,0.1-0.3,0.2-0.5c0.1-0.1,0.3-0.2,0.5-0.2H125.3z M126.4,16.6c0.2,0,0.3,0.1,0.5,0.2c0.1,0.1,0.2,0.3,0.2,0.5
			c0,0.2-0.1,0.3-0.2,0.5c-0.1,0.1-0.3,0.2-0.5,0.2h-3.2c-0.2,0-0.4-0.1-0.5-0.2c-0.1-0.1-0.2-0.3-0.2-0.5c0-0.2,0.1-0.3,0.2-0.5
			c0.1-0.1,0.3-0.2,0.5-0.2H126.4z M113.4,20.5c0-0.1,0-0.2,0.1-0.3c0.1-0.1,0.2-0.1,0.4-0.1h5.1v1.1h-5.5
			C113.4,21.1,113.4,20.5,113.4,20.5z M118.9,22.6v1.1h-5.1c-0.2,0-0.3,0-0.4-0.1c-0.1-0.1-0.1-0.2-0.1-0.3v-0.6H118.9z M125.8,20.1
			c0.2,0,0.3,0.1,0.4,0.2c0.1,0.1,0.1,0.2,0.1,0.3v0.6h-5.5v-1.1H125.8z M126.3,22.6c0,0,0,0.5,0,0.6c0,0.2,0,0.3-0.1,0.3
			c-0.1,0.1-0.2,0.1-0.4,0.1h-5v-1.1H126.3z M128,26.2c0,0-5.9,0-6.4,0c-0.2,0-0.5,0-0.7-0.2c-0.2-0.2-0.1-0.5-0.1-0.9
			c0.1,0,6,0,6,0c0.3,0,0.6-0.1,0.8-0.4c0.3-0.3,0.4-0.5,0.4-0.9v-4.2c0-0.3-0.1-0.6-0.3-0.8c-0.3-0.2-0.6-0.3-0.9-0.3h-14.1
			c-0.3,0-0.6,0.1-0.8,0.3c-0.2,0.2-0.3,0.5-0.3,0.8v4.2c0,0.3,0.1,0.6,0.3,0.9c0.2,0.2,0.4,0.3,0.7,0.4h6.2c0,0,0,0.6,0,0.7
			c0,0.7,0.4,1.3,0.7,1.6c0.4,0.3,0.9,0.4,1.3,0.4c0.6,0,7,0,7,0c0.4,0,0.8-0.3,0.8-0.8C128.8,26.6,128.4,26.2,128,26.2z
			 M127.5,13.9c0.1,0,0.2,0.1,0.3,0.1c0.1,0.1,0.1,0.2,0.1,0.3V17c0,0.3,0.1,0.6,0.3,0.7c0.2,0.2,0.4,0.2,0.6,0.2
			c0.2,0,0.5-0.1,0.6-0.3c0.1-0.1,0.3-0.4,0.3-0.7v-3.2c0-0.4-0.1-0.8-0.4-1c-0.3-0.3-0.6-0.4-1-0.4h-7.5v-0.9h6.4
			c0.2,0,0.4-0.1,0.5-0.2c0.1-0.1,0.2-0.4,0.2-0.5c0-0.2-0.1-0.4-0.2-0.6c-0.1-0.1-0.3-0.2-0.5-0.2h-14.5c-0.2,0-0.4,0.1-0.6,0.2
			c-0.2,0.1-0.2,0.3-0.2,0.5c0,0.2,0.1,0.4,0.2,0.6c0.1,0.1,0.3,0.2,0.6,0.2h6.4v0.9h-7.5c-0.4,0-0.7,0.2-1,0.4
			c-0.3,0.3-0.4,0.6-0.4,1V17c0,0.3,0.1,0.6,0.3,0.7c0.1,0.1,0.4,0.3,0.6,0.3c0.2,0,0.5-0.1,0.6-0.2c0.2-0.1,0.3-0.4,0.3-0.7v-2.7
			c0-0.1,0-0.2,0.1-0.3c0.1-0.1,0.2-0.1,0.3-0.1h6.7v3.3c0,0.3,0.1,0.6,0.3,0.7c0.2,0.2,0.4,0.2,0.6,0.2c0.2,0,0.5-0.1,0.6-0.2
			c0.1-0.2,0.3-0.4,0.3-0.7v-3.3H127.5z"/>
	</g>
</g>
</svg>
