<svg width="22" height="23" viewBox="0 0 22 23" fill="none" xmlns="http://www.w3.org/2000/svg">
<path d="M21 21.7139L19 19.7139M10.5 20.7139C11.7476 20.7139 12.9829 20.4681 14.1355 19.9907C15.2881 19.5133 16.3354 18.8135 17.2175 17.9314C18.0997 17.0492 18.7994 16.002 19.2769 14.8494C19.7543 13.6968 20 12.4614 20 11.2139C20 9.96631 19.7543 8.73097 19.2769 7.57837C18.7994 6.42578 18.0997 5.37851 17.2175 4.49635C16.3354 3.6142 15.2881 2.91443 14.1355 2.43701C12.9829 1.95959 11.7476 1.71387 10.5 1.71387C7.98044 1.71387 5.56408 2.71476 3.78249 4.49635C2.00089 6.27795 1 8.69431 1 11.2139C1 13.7334 2.00089 16.1498 3.78249 17.9314C5.56408 19.713 7.98044 20.7139 10.5 20.7139Z" stroke="#3f4f69" stroke-width="1.5" stroke-linecap="round" stroke-linejoin="round"/>
</svg>
