<?xml version="1.0" ?><svg id="Layer_1" style="enable-background:new 0 0 32 32;" version="1.1" viewBox="0 0 32 32" xml:space="preserve" xmlns="http://www.w3.org/2000/svg" xmlns:xlink="http://www.w3.org/1999/xlink"><style type="text/css">
	.st0{fill:#00BBB4;}
	.st1{fill:#1B75BC;}
	.st2{fill:#F15A29;}
</style><path class="st2" d="M17,3L3,17l12,12l14-14V3H17z M18.2895508,16.324707l-4.1245117,4.1240234  c-0.1953125,0.1953125-0.4511719,0.2929688-0.7070313,0.2929688s-0.5117188-0.0976563-0.7070313-0.2929688l-1.8754883-1.8754883  c-0.390625-0.390625-0.390625-1.0234375,0-1.4140625s1.0234375-0.390625,1.4140625,0l1.168457,1.168457l3.4174805-3.4169922  c0.390625-0.390625,1.0234375-0.390625,1.4140625,0S18.6801758,15.9345703,18.2895508,16.324707z M23,11.666626  c-0.7363892,0.7363892-1.9302979,0.7363892-2.666687,0c-0.7363892-0.7363281-0.7363892-1.9302368,0-2.666626  S22.2636108,8.2636108,23,9S23.7363892,10.9302979,23,11.666626z"/></svg>