<svg width="28" height="18" viewBox="0 0 28 18" fill="none" xmlns="http://www.w3.org/2000/svg">
<mask id="mask0_912_515" style="mask-type:alpha" maskUnits="userSpaceOnUse" x="0" y="0" width="28" height="18">
<path d="M24.9286 0.5H3.07143C1.65127 0.5 0.5 1.51482 0.5 2.76667V15.2333C0.5 16.4852 1.65127 17.5 3.07143 17.5H24.9286C26.3487 17.5 27.5 16.4852 27.5 15.2333V2.76667C27.5 1.51482 26.3487 0.5 24.9286 0.5Z" fill="white"/>
</mask>
<g mask="url(#mask0_912_515)">
<path d="M24.9286 0.5H3.07143C1.65127 0.5 0.5 1.51482 0.5 2.76667V15.2333C0.5 16.4852 1.65127 17.5 3.07143 17.5H24.9286C26.3487 17.5 27.5 16.4852 27.5 15.2333V2.76667C27.5 1.51482 26.3487 0.5 24.9286 0.5Z" fill="white"/>
<path fill-rule="evenodd" clip-rule="evenodd" d="M0.5 0.5H12.0714V8.43333H0.5V0.5Z" fill="#444379"/>
<path fill-rule="evenodd" clip-rule="evenodd" d="M1.78516 1.63379V2.76712H3.07087V1.63379H1.78516ZM4.35659 1.63379V2.76712H5.6423V1.63379H4.35659ZM6.92801 1.63379V2.76712H8.21373V1.63379H6.92801ZM9.49944 1.63379V2.76712H10.7852V1.63379H9.49944ZM8.21373 2.76712V3.90046H9.49944V2.76712H8.21373ZM5.6423 2.76712V3.90046H6.92801V2.76712H5.6423ZM3.07087 2.76712V3.90046H4.35659V2.76712H3.07087ZM1.78516 3.90046V5.03379H3.07087V3.90046H1.78516ZM4.35659 3.90046V5.03379H5.6423V3.90046H4.35659ZM6.92801 3.90046V5.03379H8.21373V3.90046H6.92801ZM9.49944 3.90046V5.03379H10.7852V3.90046H9.49944ZM1.78516 6.16712V7.30046H3.07087V6.16712H1.78516ZM4.35659 6.16712V7.30046H5.6423V6.16712H4.35659ZM6.92801 6.16712V7.30046H8.21373V6.16712H6.92801ZM9.49944 6.16712V7.30046H10.7852V6.16712H9.49944ZM8.21373 5.03379V6.16712H9.49944V5.03379H8.21373ZM5.6423 5.03379V6.16712H6.92801V5.03379H5.6423ZM3.07087 5.03379V6.16712H4.35659V5.03379H3.07087Z" fill="#A7B6E7"/>
<path fill-rule="evenodd" clip-rule="evenodd" d="M12.0714 0.5V1.63333H27.5V0.5H12.0714ZM12.0714 2.76667V3.9H27.5V2.76667H12.0714ZM12.0714 5.03333V6.16667H27.5V5.03333H12.0714ZM12.0714 7.3V8.43333H27.5V7.3H12.0714ZM0.5 9.56667V10.7H27.5V9.56667H0.5ZM0.5 11.8333V12.9667H27.5V11.8333H0.5ZM0.5 14.1V15.2333H27.5V14.1H0.5ZM0.5 16.3667V17.5H27.5V16.3667H0.5Z" fill="#ED4C49"/>
<path d="M24.9283 1.06641H3.07115C2.00603 1.06641 1.14258 1.82752 1.14258 2.76641V15.2331C1.14258 16.172 2.00603 16.9331 3.07115 16.9331H24.9283C25.9934 16.9331 26.8569 16.172 26.8569 15.2331V2.76641C26.8569 1.82752 25.9934 1.06641 24.9283 1.06641Z" stroke="black" stroke-opacity="0.1" stroke-width="1.3"/>
</g>
</svg>
