<svg width="469" height="77" viewBox="0 0 469 77" fill="none" xmlns="http://www.w3.org/2000/svg">
<path d="M24.6544 20.851L25.7815 21.2173L26.514 18.9631L25.3869 18.5968L24.6544 20.851ZM9.468 15.4155C8.88314 15.7093 8.6472 16.4216 8.94101 17.0064C9.23483 17.5913 9.94713 17.8272 10.532 17.5334L9.468 15.4155ZM25.3869 18.5968C24.6474 18.3565 23.6106 17.9279 22.3243 17.4119C21.0653 16.9068 19.6142 16.3382 18.1319 15.8617C16.6548 15.3869 15.1037 14.9892 13.6436 14.8435C12.2 14.6994 10.7173 14.7879 9.468 15.4155L10.532 17.5334C11.206 17.1948 12.168 17.0782 13.4082 17.202C14.632 17.3241 16.0039 17.6673 17.4066 18.1182C18.8041 18.5674 20.1897 19.1094 21.4419 19.6117C22.6668 20.103 23.8158 20.5785 24.6544 20.851L25.3869 18.5968Z" fill="url(#paint0_linear_918_5002)"/>
<path d="M53.6184 40.7957L26.4141 23.1665" stroke="url(#paint1_linear_918_5002)" stroke-width="2.37021" stroke-linecap="round"/>
<path d="M68.7055 54.3819L67.6894 54.9918L68.9092 57.024L69.9253 56.4141L68.7055 54.3819ZM65.0692 46.8777C64.5115 46.5353 63.7817 46.7099 63.4392 47.2677C63.0968 47.8255 63.2714 48.5552 63.8292 48.8977L65.0692 46.8777ZM69.9253 56.4141C70.5268 56.0531 71.003 55.4652 71.1865 54.6947C71.3675 53.9348 71.2384 53.1117 70.8573 52.2911C70.1125 50.6873 68.3084 48.8663 65.0692 46.8777L63.8292 48.8977C66.9334 50.8034 68.2575 52.3202 68.7076 53.2894C68.9239 53.7553 68.9089 54.0274 68.8808 54.1455C68.8552 54.2529 68.7992 54.3257 68.7055 54.3819L69.9253 56.4141Z" fill="url(#paint2_linear_918_5002)"/>
<path d="M23.5655 12.0233L24.0876 10.3359L24.5955 12.0233C26.5551 18.533 31.4885 24.089 38.2796 27.4343L40.0399 28.0444L38.2796 28.9115C31.4885 32.2568 26.5551 37.8128 24.5955 44.3225L24.0876 46.0099L23.5655 44.3225C21.6059 37.8128 16.6725 32.2568 9.88141 28.9115L8.12109 28.0444L9.88141 27.4343C15.4808 24.676 19.8173 20.4149 22.2652 15.3553C22.7862 14.2786 23.2216 13.1656 23.5655 12.0233Z" fill="url(#paint3_linear_918_5002)"/>
<path d="M23.5655 12.0233L24.0876 10.3359L24.5955 12.0233C26.5551 18.533 31.4885 24.089 38.2796 27.4343L40.0399 28.0444L38.2796 28.9115C31.4885 32.2568 26.5551 37.8128 24.5955 44.3225L24.0876 46.0099L23.5655 44.3225C21.6059 37.8128 16.6725 32.2568 9.88141 28.9115L8.12109 28.0444L9.88141 27.4343C15.4808 24.676 19.8173 20.4149 22.2652 15.3553C22.7862 14.2786 23.2216 13.1656 23.5655 12.0233Z" stroke="#79627D" stroke-width="2.37021"/>
<path d="M23.5655 12.0233L24.0876 10.3359L24.5955 12.0233C26.5551 18.533 31.4885 24.089 38.2796 27.4343L40.0399 28.0444L38.2796 28.9115C31.4885 32.2568 26.5551 37.8128 24.5955 44.3225L24.0876 46.0099L23.5655 44.3225C21.6059 37.8128 16.6725 32.2568 9.88141 28.9115L8.12109 28.0444L9.88141 27.4343C15.4808 24.676 19.8173 20.4149 22.2652 15.3553C22.7862 14.2786 23.2216 13.1656 23.5655 12.0233Z" stroke="url(#paint4_linear_918_5002)" stroke-width="2.37021"/>
<path d="M49.7307 23.733L50.3756 21.6016L51.0031 23.733C53.4238 31.9558 59.518 38.9739 67.907 43.1995L70.0815 43.9702L67.907 45.0655C59.518 49.2911 53.4238 56.3092 51.0031 64.532L50.3756 66.6634L49.7307 64.532C47.31 56.3092 41.2158 49.2911 32.8268 45.0655L30.6523 43.9702L32.8268 43.1995C41.2158 38.9739 47.31 31.9558 49.7307 23.733Z" fill="url(#paint5_linear_918_5002)"/>
<path d="M49.7307 23.733L50.3756 21.6016L51.0031 23.733C53.4238 31.9558 59.518 38.9739 67.907 43.1995L70.0815 43.9702L67.907 45.0655C59.518 49.2911 53.4238 56.3092 51.0031 64.532L50.3756 66.6634L49.7307 64.532C47.31 56.3092 41.2158 49.2911 32.8268 45.0655L30.6523 43.9702L32.8268 43.1995C41.2158 38.9739 47.31 31.9558 49.7307 23.733Z" stroke="#79627D" stroke-width="2.37021"/>
<path d="M49.7307 23.733L50.3756 21.6016L51.0031 23.733C53.4238 31.9558 59.518 38.9739 67.907 43.1995L70.0815 43.9702L67.907 45.0655C59.518 49.2911 53.4238 56.3092 51.0031 64.532L50.3756 66.6634L49.7307 64.532C47.31 56.3092 41.2158 49.2911 32.8268 45.0655L30.6523 43.9702L32.8268 43.1995C41.2158 38.9739 47.31 31.9558 49.7307 23.733Z" stroke="url(#paint6_linear_918_5002)" stroke-width="2.37021"/>
<path d="M10.8192 15.9688C6.13969 20.2743 22.593 31.5158 32.6674 38.8068C42.7419 46.7412 63.3175 61.5095 69.1437 55.3979" stroke="url(#paint7_linear_918_5002)" stroke-width="2.37021" stroke-linecap="round"/>
<g filter="url(#filter0_d_918_5002)">
<path d="M103.393 61L92.1687 29.352H103.025L109.373 50.512H109.557L115.951 29.352H126.347L115.169 61H103.393ZM144.772 36.16C149.218 36.16 152.607 37.2027 154.938 39.288C157.299 41.3733 158.48 44.5627 158.48 48.856V50.42H140.264C140.264 52.168 140.647 53.4867 141.414 54.376C142.211 55.2653 143.453 55.71 145.14 55.71C146.673 55.71 147.792 55.388 148.498 54.744C149.234 54.1 149.602 53.2413 149.602 52.168H158.48C158.48 55.112 157.36 57.412 155.122 59.068C152.883 60.724 149.617 61.552 145.324 61.552C140.816 61.552 137.32 60.5093 134.836 58.424C132.352 56.308 131.11 53.1187 131.11 48.856C131.11 44.6853 132.321 41.5267 134.744 39.38C137.166 37.2333 140.509 36.16 144.772 36.16ZM145.14 42.002C142.257 42.002 140.647 43.3667 140.31 46.096H149.234C149.234 44.8387 148.866 43.842 148.13 43.106C147.424 42.37 146.428 42.002 145.14 42.002ZM184.239 36.16C187.06 36.16 189.176 36.942 190.587 38.506C191.998 40.07 192.703 42.324 192.703 45.268V61H183.549V46.372C183.549 45.3293 183.273 44.5013 182.721 43.888C182.2 43.244 181.448 42.922 180.467 42.922C179.332 42.922 178.412 43.29 177.707 44.026C177.002 44.762 176.649 45.6667 176.649 46.74V61H167.495V36.712H174.993L175.591 40.392C176.542 39.104 177.784 38.0767 179.317 37.31C180.881 36.5433 182.522 36.16 184.239 36.16ZM220.441 61L219.659 57.55C217.88 60.218 215.304 61.552 211.931 61.552C208.649 61.552 206.119 60.4787 204.341 58.332C202.562 56.1853 201.673 53.0113 201.673 48.81C201.673 44.6393 202.562 41.496 204.341 39.38C206.119 37.2333 208.649 36.16 211.931 36.16C214.721 36.16 216.991 37.0953 218.739 38.966V27.65H227.893V61H220.441ZM214.783 42.922C212.145 42.922 210.827 44.5013 210.827 47.66V50.098C210.827 53.226 212.145 54.79 214.783 54.79C216.132 54.79 217.144 54.3147 217.819 53.364C218.493 52.4133 218.831 51.1713 218.831 49.638V48.12C218.831 46.5867 218.493 45.3447 217.819 44.394C217.144 43.4127 216.132 42.922 214.783 42.922ZM250.616 36.16C254.879 36.16 258.222 37.2487 260.644 39.426C263.098 41.5727 264.324 44.716 264.324 48.856C264.324 52.996 263.098 56.1547 260.644 58.332C258.222 60.4787 254.879 61.552 250.616 61.552C246.354 61.552 243.011 60.4787 240.588 58.332C238.166 56.1853 236.954 53.0267 236.954 48.856C236.954 44.6853 238.166 41.5267 240.588 39.38C243.011 37.2333 246.354 36.16 250.616 36.16ZM250.616 42.37C247.611 42.37 246.108 44.1027 246.108 47.568V50.19C246.108 53.6247 247.611 55.342 250.616 55.342C253.652 55.342 255.17 53.6247 255.17 50.19V47.568C255.17 44.1027 253.652 42.37 250.616 42.37ZM288.106 36.114C288.811 36.114 289.44 36.206 289.992 36.39C290.544 36.5433 290.82 36.6353 290.82 36.666V44.348H287.876C285.975 44.348 284.595 44.8387 283.736 45.82C282.908 46.8013 282.494 48.258 282.494 50.19V61H273.34V36.712H280.838L281.436 40.392C281.988 38.9813 282.862 37.9233 284.058 37.218C285.254 36.482 286.603 36.114 288.106 36.114Z" fill="url(#paint8_linear_918_5002)"/>
<path d="M307.626 61L296.402 29.352H307.258L313.606 50.512H313.79L320.184 29.352H330.58L319.402 61H307.626ZM349.004 36.16C353.451 36.16 356.84 37.2027 359.17 39.288C361.532 41.3733 362.712 44.5627 362.712 48.856V50.42H344.496C344.496 52.168 344.88 53.4867 345.646 54.376C346.444 55.2653 347.686 55.71 349.372 55.71C350.906 55.71 352.025 55.388 352.73 54.744C353.466 54.1 353.834 53.2413 353.834 52.168H362.712C362.712 55.112 361.593 57.412 359.354 59.068C357.116 60.724 353.85 61.552 349.556 61.552C345.048 61.552 341.552 60.5093 339.068 58.424C336.584 56.308 335.342 53.1187 335.342 48.856C335.342 44.6853 336.554 41.5267 338.976 39.38C341.399 37.2333 344.742 36.16 349.004 36.16ZM349.372 42.002C346.49 42.002 344.88 43.3667 344.542 46.096H353.466C353.466 44.8387 353.098 43.842 352.362 43.106C351.657 42.37 350.66 42.002 349.372 42.002ZM386.494 36.114C387.199 36.114 387.828 36.206 388.38 36.39C388.932 36.5433 389.208 36.6353 389.208 36.666V44.348H386.264C384.363 44.348 382.983 44.8387 382.124 45.82C381.296 46.8013 380.882 48.258 380.882 50.19V61H371.728V36.712H379.226L379.824 40.392C380.376 38.9813 381.25 37.9233 382.446 37.218C383.642 36.482 384.991 36.114 386.494 36.114ZM409.481 36.16C412.732 36.16 415.477 36.804 417.715 38.092C419.985 39.3493 421.119 41.312 421.119 43.98H412.609C412.609 43.0907 412.211 42.462 411.413 42.094C410.861 41.7873 410.171 41.634 409.343 41.634C407.135 41.634 406.031 42.1553 406.031 43.198C406.031 43.7807 406.415 44.1947 407.181 44.44C407.948 44.6853 409.205 44.946 410.953 45.222C413.1 45.5287 414.894 45.8967 416.335 46.326C417.777 46.7247 419.034 47.4607 420.107 48.534C421.181 49.5767 421.717 51.0487 421.717 52.95C421.717 56.0473 420.552 58.2553 418.221 59.574C415.921 60.8927 412.901 61.552 409.159 61.552C407.013 61.552 404.989 61.2607 403.087 60.678C401.186 60.0647 399.637 59.1293 398.441 57.872C397.245 56.6147 396.647 55.02 396.647 53.088H405.157V53.272C405.188 54.3147 405.617 55.0507 406.445 55.48C407.304 55.8787 408.209 56.078 409.159 56.078C411.705 56.078 412.977 55.48 412.977 54.284C412.977 53.6707 412.579 53.226 411.781 52.95C410.984 52.674 409.681 52.3827 407.871 52.076C405.694 51.708 403.9 51.3093 402.489 50.88C401.109 50.4507 399.898 49.73 398.855 48.718C397.813 47.6753 397.291 46.234 397.291 44.394C397.291 41.4193 398.411 39.3033 400.649 38.046C402.919 36.7887 405.863 36.16 409.481 36.16ZM443.214 36.16C447.661 36.16 451.05 37.2027 453.38 39.288C455.742 41.3733 456.922 44.5627 456.922 48.856V50.42H438.706C438.706 52.168 439.09 53.4867 439.856 54.376C440.654 55.2653 441.896 55.71 443.582 55.71C445.116 55.71 446.235 55.388 446.94 54.744C447.676 54.1 448.044 53.2413 448.044 52.168H456.922C456.922 55.112 455.803 57.412 453.564 59.068C451.326 60.724 448.06 61.552 443.766 61.552C439.258 61.552 435.762 60.5093 433.278 58.424C430.794 56.308 429.552 53.1187 429.552 48.856C429.552 44.6853 430.764 41.5267 433.186 39.38C435.609 37.2333 438.952 36.16 443.214 36.16ZM443.582 42.002C440.7 42.002 439.09 43.3667 438.752 46.096H447.676C447.676 44.8387 447.308 43.842 446.572 43.106C445.867 42.37 444.87 42.002 443.582 42.002Z" fill="url(#paint9_linear_918_5002)"/>
</g>
<defs>
<filter id="filter0_d_918_5002" x="84.168" y="20.6499" width="384.754" height="53.9019" filterUnits="userSpaceOnUse" color-interpolation-filters="sRGB">
<feFlood flood-opacity="0" result="BackgroundImageFix"/>
<feColorMatrix in="SourceAlpha" type="matrix" values="0 0 0 0 0 0 0 0 0 0 0 0 0 0 0 0 0 0 127 0" result="hardAlpha"/>
<feOffset dx="2" dy="3"/>
<feGaussianBlur stdDeviation="5"/>
<feComposite in2="hardAlpha" operator="out"/>
<feColorMatrix type="matrix" values="0 0 0 0 0.21776 0 0 0 0 0.21776 0 0 0 0 0.470833 0 0 0 0.25 0"/>
<feBlend mode="normal" in2="BackgroundImageFix" result="effect1_dropShadow_918_5002"/>
<feBlend mode="normal" in="SourceGraphic" in2="effect1_dropShadow_918_5002" result="shape"/>
</filter>
<linearGradient id="paint0_linear_918_5002" x1="17.5103" y1="15.9688" x2="17.5103" y2="19.7239" gradientUnits="userSpaceOnUse">
<stop/>
<stop offset="1" stop-color="#5E0060"/>
</linearGradient>
<linearGradient id="paint1_linear_918_5002" x1="40.4048" y1="23.6725" x2="39.8036" y2="40.296" gradientUnits="userSpaceOnUse">
<stop/>
<stop offset="1" stop-color="#5E0060"/>
</linearGradient>
<linearGradient id="paint2_linear_918_5002" x1="67.2656" y1="47.8877" x2="67.2656" y2="55.398" gradientUnits="userSpaceOnUse">
<stop/>
<stop offset="1" stop-color="#000A60"/>
</linearGradient>
<linearGradient id="paint3_linear_918_5002" x1="24.0805" y1="10.3359" x2="24.0805" y2="46.0099" gradientUnits="userSpaceOnUse">
<stop offset="0.0729167" stop-color="#E7A036"/>
<stop offset="0.421875" stop-color="#F1BE07"/>
<stop offset="1" stop-color="#F7F8CE"/>
</linearGradient>
<linearGradient id="paint4_linear_918_5002" x1="24.0805" y1="10.3359" x2="24.0805" y2="46.0099" gradientUnits="userSpaceOnUse">
<stop/>
<stop offset="1" stop-color="#06083A"/>
</linearGradient>
<linearGradient id="paint5_linear_918_5002" x1="50.3669" y1="21.6016" x2="50.3669" y2="66.6634" gradientUnits="userSpaceOnUse">
<stop offset="0.0729167" stop-color="#E2A54A"/>
<stop offset="0.421875" stop-color="#F1BE07"/>
<stop offset="1" stop-color="#F7F8CE"/>
</linearGradient>
<linearGradient id="paint6_linear_918_5002" x1="50.3669" y1="21.6016" x2="50.3669" y2="66.6634" gradientUnits="userSpaceOnUse">
<stop/>
<stop offset="1" stop-color="#000460"/>
</linearGradient>
<linearGradient id="paint7_linear_918_5002" x1="40.0412" y1="15.9688" x2="40.0412" y2="57.2755" gradientUnits="userSpaceOnUse">
<stop/>
<stop offset="1" stop-color="#020060"/>
</linearGradient>
<linearGradient id="paint8_linear_918_5002" x1="275.387" y1="21" x2="275.387" y2="71" gradientUnits="userSpaceOnUse">
<stop stop-color="#3A3A5E"/>
<stop offset="1" stop-color="#3A3A5E"/>
</linearGradient>
<linearGradient id="paint9_linear_918_5002" x1="275.387" y1="21" x2="275.387" y2="71" gradientUnits="userSpaceOnUse">
<stop stop-color="#FFB301"/>
<stop offset="1" stop-color="#FF9401"/>
</linearGradient>
</defs>
</svg>
