<svg width="251" height="108" viewBox="0 0 251 108" fill="none" xmlns="http://www.w3.org/2000/svg">
<g clip-path="url(#clip0_177_1236)">
<path d="M24.0421 36.9028L25.1692 37.269L25.9017 35.0148L24.7746 34.6486L24.0421 36.9028ZM8.8557 31.4672C8.27084 31.761 8.0349 32.4733 8.32871 33.0582C8.62252 33.6431 9.33483 33.879 9.91969 33.5852L8.8557 31.4672ZM24.7746 34.6486C24.0351 34.4083 22.9983 33.9796 21.712 33.4636C20.453 32.9586 19.0019 32.3899 17.5196 31.9134C16.0425 31.4386 14.4914 31.041 13.0313 30.8952C11.5877 30.7512 10.105 30.8396 8.8557 31.4672L9.91969 33.5852C10.5937 33.2466 11.5557 33.1299 12.7959 33.2537C14.0197 33.3759 15.3916 33.7191 16.7943 34.1699C18.1918 34.6192 19.5774 35.1611 20.8296 35.6634C22.0545 36.1548 23.2035 36.6302 24.0421 36.9028L24.7746 34.6486Z" fill="url(#paint0_linear_177_1236)"/>
<path d="M53.0061 56.8479L25.8018 39.2188" stroke="url(#paint1_linear_177_1236)" stroke-width="2.37021" stroke-linecap="round"/>
<path d="M68.0942 70.4336L67.0781 71.0435L68.2978 73.0758L69.314 72.4659L68.0942 70.4336ZM64.4579 62.9295C63.9001 62.5871 63.1704 62.7616 62.8279 63.3194C62.4855 63.8772 62.6601 64.607 63.2179 64.9494L64.4579 62.9295ZM69.314 72.4659C69.9155 72.1049 70.3917 71.517 70.5752 70.7464C70.7561 69.9866 70.6271 69.1635 70.246 68.3429C69.5012 66.7391 67.6971 64.918 64.4579 62.9295L63.2179 64.9494C66.3221 66.8551 67.6462 68.372 68.0963 69.3412C68.3126 69.807 68.2976 70.0792 68.2695 70.1973C68.2439 70.3047 68.1879 70.3774 68.0942 70.4336L69.314 72.4659Z" fill="url(#paint2_linear_177_1236)"/>
<path d="M22.9551 28.0751L23.4772 26.3877L23.9852 28.0751C25.9448 34.5848 30.8782 40.1408 37.6693 43.4861L39.4296 44.0962L37.6693 44.9633C30.8782 48.3086 25.9448 53.8646 23.9852 60.3743L23.4772 62.0617L22.9551 60.3743C20.9955 53.8646 16.0621 48.3086 9.27105 44.9633L7.51074 44.0962L9.27105 43.4861C14.8705 40.7278 19.2069 36.4666 21.6549 31.4071C22.1758 30.3303 22.6113 29.2174 22.9551 28.0751Z" fill="url(#paint3_linear_177_1236)"/>
<path d="M22.9551 28.0751L23.4772 26.3877L23.9852 28.0751C25.9448 34.5848 30.8782 40.1408 37.6693 43.4861L39.4296 44.0962L37.6693 44.9633C30.8782 48.3086 25.9448 53.8646 23.9852 60.3743L23.4772 62.0617L22.9551 60.3743C20.9955 53.8646 16.0621 48.3086 9.27105 44.9633L7.51074 44.0962L9.27105 43.4861C14.8705 40.7278 19.2069 36.4666 21.6549 31.4071C22.1758 30.3303 22.6113 29.2174 22.9551 28.0751Z" stroke="#79627D" stroke-width="2.37021"/>
<path d="M22.9551 28.0751L23.4772 26.3877L23.9852 28.0751C25.9448 34.5848 30.8782 40.1408 37.6693 43.4861L39.4296 44.0962L37.6693 44.9633C30.8782 48.3086 25.9448 53.8646 23.9852 60.3743L23.4772 62.0617L22.9551 60.3743C20.9955 53.8646 16.0621 48.3086 9.27105 44.9633L7.51074 44.0962L9.27105 43.4861C14.8705 40.7278 19.2069 36.4666 21.6549 31.4071C22.1758 30.3303 22.6113 29.2174 22.9551 28.0751Z" stroke="url(#paint4_linear_177_1236)" stroke-width="2.37021"/>
<path d="M49.1194 39.7848L49.7643 37.6533L50.3918 39.7848C52.8125 48.0076 58.9067 55.0256 67.2957 59.2513L69.4702 60.0219L67.2957 61.1173C58.9067 65.3429 52.8125 72.3609 50.3918 80.5838L49.7643 82.7152L49.1194 80.5838C46.6987 72.3609 40.6045 65.3429 32.2155 61.1173L30.041 60.0219L32.2155 59.2513C40.6045 55.0256 46.6987 48.0076 49.1194 39.7848Z" fill="url(#paint5_linear_177_1236)"/>
<path d="M49.1194 39.7848L49.7643 37.6533L50.3918 39.7848C52.8125 48.0076 58.9067 55.0256 67.2957 59.2513L69.4702 60.0219L67.2957 61.1173C58.9067 65.3429 52.8125 72.3609 50.3918 80.5838L49.7643 82.7152L49.1194 80.5838C46.6987 72.3609 40.6045 65.3429 32.2155 61.1173L30.041 60.0219L32.2155 59.2513C40.6045 55.0256 46.6987 48.0076 49.1194 39.7848Z" stroke="#79627D" stroke-width="2.37021"/>
<path d="M49.1194 39.7848L49.7643 37.6533L50.3918 39.7848C52.8125 48.0076 58.9067 55.0256 67.2957 59.2513L69.4702 60.0219L67.2957 61.1173C58.9067 65.3429 52.8125 72.3609 50.3918 80.5838L49.7643 82.7152L49.1194 80.5838C46.6987 72.3609 40.6045 65.3429 32.2155 61.1173L30.041 60.0219L32.2155 59.2513C40.6045 55.0256 46.6987 48.0076 49.1194 39.7848Z" stroke="url(#paint6_linear_177_1236)" stroke-width="2.37021"/>
<path d="M10.2069 32.0205C5.52739 36.3261 21.9807 47.5676 32.0551 54.8586C42.1296 62.793 62.7052 77.5612 68.5314 71.4496" stroke="url(#paint7_linear_177_1236)" stroke-width="2.37021" stroke-linecap="round"/>
</g>
<path d="M86.1016 59H80.2891C80.1484 59 80.0703 58.9219 80.0547 58.7656L73.4219 25.7891C73.3906 25.6641 73.4531 25.6016 73.6094 25.6016H79.0469C79.1719 25.6016 79.25 25.6641 79.2812 25.7891L83.2188 47.7734L87.0625 25.7891C87.0938 25.6641 87.1719 25.6016 87.2969 25.6016H92.6641C92.8359 25.6016 92.8984 25.6641 92.8516 25.7891L86.3359 58.7656C86.3203 58.9219 86.2422 59 86.1016 59ZM113.261 59H97.7453C97.6203 59 97.5578 58.9219 97.5578 58.7656L97.6047 25.7891C97.6047 25.6641 97.6672 25.6016 97.7922 25.6016H113.214C113.339 25.6016 113.402 25.6797 113.402 25.8359V31.2031C113.402 31.3281 113.339 31.3906 113.214 31.3906H103.37V38.8906H113.214C113.339 38.8906 113.402 38.9531 113.402 39.0781L113.448 44.5156C113.448 44.6406 113.386 44.7031 113.261 44.7031H103.37V53.0938H113.261C113.386 53.0938 113.448 53.1719 113.448 53.3281V58.8125C113.448 58.9375 113.386 59 113.261 59ZM127.741 59H122.936C122.686 59 122.561 58.8906 122.561 58.6719L122.514 25.9766C122.514 25.7266 122.639 25.6016 122.889 25.6016H127.225L135.334 44.5156L135.1 25.9766C135.1 25.7266 135.241 25.6016 135.522 25.6016H140.28C140.467 25.6016 140.561 25.7266 140.561 25.9766L140.608 58.7188C140.608 58.9062 140.53 59 140.373 59H136.155L127.834 41.3281L128.186 58.625C128.186 58.875 128.037 59 127.741 59ZM158.416 58.9531L149.814 59C149.658 59 149.58 58.9219 149.58 58.7656L149.673 25.7891C149.673 25.6641 149.736 25.6016 149.861 25.6016L158.838 25.5547C160.619 25.5078 162.228 25.9141 163.666 26.7734C165.119 27.6328 166.275 28.7969 167.134 30.2656C168.009 31.7188 168.447 33.3281 168.447 35.0938V48.875C168.447 50.7188 168.002 52.4062 167.111 53.9375C166.205 55.4531 165.002 56.6641 163.502 57.5703C162.002 58.4609 160.306 58.9219 158.416 58.9531ZM158.838 31.2969L155.486 31.3438L155.439 53.0938H158.416C159.603 53.0938 160.603 52.6797 161.416 51.8516C162.228 51.0234 162.634 50.0312 162.634 48.875V35.0469C162.634 34.0312 162.259 33.1484 161.509 32.3984C160.759 31.6328 159.869 31.2656 158.838 31.2969ZM185.903 59.4688C184.2 59.4688 182.63 59.0312 181.192 58.1562C179.77 57.2812 178.622 56.1172 177.747 54.6641C176.887 53.1953 176.458 51.5859 176.458 49.8359L176.505 34.625C176.505 32.8438 176.934 31.2422 177.794 29.8203C178.637 28.3828 179.778 27.2344 181.216 26.375C182.653 25.5 184.216 25.0625 185.903 25.0625C187.653 25.0625 189.223 25.4922 190.614 26.3516C192.02 27.2109 193.145 28.3672 193.989 29.8203C194.848 31.2578 195.278 32.8594 195.278 34.625L195.325 49.8359C195.325 51.5859 194.903 53.1875 194.059 54.6406C193.2 56.1094 192.059 57.2812 190.637 58.1562C189.216 59.0312 187.637 59.4688 185.903 59.4688ZM185.903 53.6797C186.872 53.6797 187.716 53.2891 188.434 52.5078C189.153 51.7109 189.512 50.8203 189.512 49.8359L189.466 34.625C189.466 33.5625 189.13 32.6641 188.458 31.9297C187.786 31.1953 186.934 30.8281 185.903 30.8281C184.919 30.8281 184.075 31.1875 183.372 31.9062C182.669 32.625 182.317 33.5312 182.317 34.625V49.8359C182.317 50.8828 182.669 51.7891 183.372 52.5547C184.075 53.3047 184.919 53.6797 185.903 53.6797ZM209.383 59H203.945C203.82 59 203.758 58.9219 203.758 58.7656L203.852 25.7891C203.852 25.6641 203.914 25.6016 204.039 25.6016H213.742C215.477 25.6016 217.07 26.0234 218.523 26.8672C219.977 27.7109 221.133 28.8438 221.992 30.2656C222.867 31.6875 223.305 33.2969 223.305 35.0938C223.305 36.2656 223.125 37.3281 222.766 38.2812C222.406 39.2344 221.984 40.0391 221.5 40.6953C221.031 41.3516 220.602 41.8359 220.211 42.1484C221.945 44.0703 222.812 46.3281 222.812 48.9219L222.859 58.7656C222.859 58.9219 222.781 59 222.625 59H217.188C217.062 59 217 58.9531 217 58.8594V48.9219C217 47.7656 216.594 46.7656 215.781 45.9219C214.969 45.0781 213.969 44.6562 212.781 44.6562H209.617L209.57 58.7656C209.57 58.9219 209.508 59 209.383 59ZM213.742 31.3438H209.617V38.8906H213.742C214.727 38.8906 215.602 38.5234 216.367 37.7891C217.148 37.0547 217.539 36.1562 217.539 35.0938C217.539 34.0781 217.164 33.2031 216.414 32.4688C215.664 31.7188 214.773 31.3438 213.742 31.3438Z" fill="#30304A"/>
<path d="M153.734 87H149.859C149.766 87 149.714 86.9479 149.703 86.8438L145.281 64.8594C145.26 64.776 145.302 64.7344 145.406 64.7344H149.031C149.115 64.7344 149.167 64.776 149.188 64.8594L151.812 79.5156L154.375 64.8594C154.396 64.776 154.448 64.7344 154.531 64.7344H158.109C158.224 64.7344 158.266 64.776 158.234 64.8594L153.891 86.8438C153.88 86.9479 153.828 87 153.734 87ZM171.841 87H161.497C161.414 87 161.372 86.9479 161.372 86.8438L161.403 64.8594C161.403 64.776 161.445 64.7344 161.528 64.7344H171.809C171.893 64.7344 171.934 64.7865 171.934 64.8906V68.4688C171.934 68.5521 171.893 68.5938 171.809 68.5938H165.247V73.5938H171.809C171.893 73.5938 171.934 73.6354 171.934 73.7188L171.966 77.3438C171.966 77.4271 171.924 77.4688 171.841 77.4688H165.247V83.0625H171.841C171.924 83.0625 171.966 83.1146 171.966 83.2188V86.875C171.966 86.9583 171.924 87 171.841 87ZM181.759 87H178.134C178.051 87 178.009 86.9479 178.009 86.8438L178.072 64.8594C178.072 64.776 178.114 64.7344 178.197 64.7344H184.666C185.822 64.7344 186.884 65.0156 187.853 65.5781C188.822 66.1406 189.593 66.8958 190.166 67.8438C190.749 68.7917 191.041 69.8646 191.041 71.0625C191.041 71.8438 190.921 72.5521 190.681 73.1875C190.442 73.8229 190.16 74.3594 189.837 74.7969C189.525 75.2344 189.239 75.5573 188.978 75.7656C190.134 77.0469 190.712 78.5521 190.712 80.2812L190.744 86.8438C190.744 86.9479 190.692 87 190.587 87H186.962C186.879 87 186.837 86.9688 186.837 86.9062V80.2812C186.837 79.5104 186.567 78.8438 186.025 78.2812C185.483 77.7188 184.817 77.4375 184.025 77.4375H181.916L181.884 86.8438C181.884 86.9479 181.843 87 181.759 87ZM184.666 68.5625H181.916V73.5938H184.666C185.322 73.5938 185.905 73.349 186.416 72.8594C186.936 72.3698 187.197 71.7708 187.197 71.0625C187.197 70.3854 186.947 69.8021 186.447 69.3125C185.947 68.8125 185.353 68.5625 184.666 68.5625ZM202.084 87.3125C200.949 87.3125 199.902 87.0208 198.944 86.4375C197.996 85.8542 197.235 85.0781 196.662 84.1094C196.1 83.1302 195.819 82.0573 195.819 80.8906V79.4219C195.819 79.3073 195.871 79.25 195.975 79.25H199.569C199.652 79.25 199.694 79.3073 199.694 79.4219V80.8906C199.694 81.5885 199.928 82.1927 200.397 82.7031C200.866 83.2031 201.428 83.4531 202.084 83.4531C202.751 83.4531 203.319 83.1979 203.787 82.6875C204.256 82.1667 204.491 81.5677 204.491 80.8906C204.491 80.1094 203.98 79.4271 202.959 78.8438C202.793 78.7396 202.574 78.6146 202.303 78.4688C202.043 78.3125 201.73 78.1354 201.366 77.9375C201.001 77.7396 200.647 77.5469 200.303 77.3594C199.959 77.1615 199.626 76.974 199.303 76.7969C198.136 76.1094 197.267 75.25 196.694 74.2188C196.131 73.1771 195.85 72.0104 195.85 70.7188C195.85 69.5312 196.142 68.4583 196.725 67.5C197.308 66.5521 198.069 65.8021 199.006 65.25C199.954 64.6875 200.98 64.4062 202.084 64.4062C203.22 64.4062 204.261 64.6875 205.209 65.25C206.157 65.8229 206.912 66.5833 207.475 67.5312C208.048 68.4792 208.334 69.5417 208.334 70.7188V73.3438C208.334 73.4271 208.293 73.4688 208.209 73.4688H204.616C204.532 73.4688 204.491 73.4271 204.491 73.3438L204.459 70.7188C204.459 69.9688 204.225 69.3594 203.756 68.8906C203.287 68.4219 202.73 68.1875 202.084 68.1875C201.428 68.1875 200.866 68.4375 200.397 68.9375C199.928 69.4375 199.694 70.0312 199.694 70.7188C199.694 71.4167 199.84 72 200.131 72.4688C200.433 72.9375 200.98 73.3854 201.772 73.8125C201.855 73.8542 202.048 73.9583 202.35 74.125C202.652 74.2917 202.985 74.4792 203.35 74.6875C203.725 74.8854 204.064 75.0677 204.366 75.2344C204.668 75.3906 204.85 75.4844 204.912 75.5156C205.975 76.1094 206.814 76.8385 207.428 77.7031C208.053 78.5677 208.366 79.6302 208.366 80.8906C208.366 82.1094 208.084 83.2031 207.522 84.1719C206.949 85.1406 206.189 85.9062 205.241 86.4688C204.293 87.0312 203.241 87.3125 202.084 87.3125ZM224.253 87H213.909C213.826 87 213.784 86.9479 213.784 86.8438L213.816 64.8594C213.816 64.776 213.857 64.7344 213.941 64.7344H224.222C224.305 64.7344 224.347 64.7865 224.347 64.8906V68.4688C224.347 68.5521 224.305 68.5938 224.222 68.5938H217.659V73.5938H224.222C224.305 73.5938 224.347 73.6354 224.347 73.7188L224.378 77.3438C224.378 77.4271 224.336 77.4688 224.253 77.4688H217.659V83.0625H224.253C224.336 83.0625 224.378 83.1146 224.378 83.2188V86.875C224.378 86.9583 224.336 87 224.253 87Z" fill="url(#paint8_linear_177_1236)"/>
<defs>
<linearGradient id="paint0_linear_177_1236" x1="16.898" y1="32.0205" x2="16.898" y2="35.7757" gradientUnits="userSpaceOnUse">
<stop/>
<stop offset="1" stop-color="#5E0060"/>
</linearGradient>
<linearGradient id="paint1_linear_177_1236" x1="39.7925" y1="39.7248" x2="39.1913" y2="56.3483" gradientUnits="userSpaceOnUse">
<stop/>
<stop offset="1" stop-color="#5E0060"/>
</linearGradient>
<linearGradient id="paint2_linear_177_1236" x1="66.6543" y1="63.9395" x2="66.6543" y2="71.4498" gradientUnits="userSpaceOnUse">
<stop/>
<stop offset="1" stop-color="#000A60"/>
</linearGradient>
<linearGradient id="paint3_linear_177_1236" x1="23.4702" y1="26.3877" x2="23.4702" y2="62.0617" gradientUnits="userSpaceOnUse">
<stop stop-color="#FFB301"/>
<stop offset="1" stop-color="#FF9201"/>
</linearGradient>
<linearGradient id="paint4_linear_177_1236" x1="23.4702" y1="26.3877" x2="23.4702" y2="62.0617" gradientUnits="userSpaceOnUse">
<stop/>
<stop offset="1" stop-color="#06083A"/>
</linearGradient>
<linearGradient id="paint5_linear_177_1236" x1="49.7556" y1="37.6533" x2="49.7556" y2="82.7152" gradientUnits="userSpaceOnUse">
<stop stop-color="#FFB301"/>
<stop offset="1" stop-color="#FF9201"/>
</linearGradient>
<linearGradient id="paint6_linear_177_1236" x1="49.7556" y1="37.6533" x2="49.7556" y2="82.7152" gradientUnits="userSpaceOnUse">
<stop/>
<stop offset="1" stop-color="#000460"/>
</linearGradient>
<linearGradient id="paint7_linear_177_1236" x1="39.4289" y1="32.0205" x2="39.4289" y2="73.3272" gradientUnits="userSpaceOnUse">
<stop/>
<stop offset="1" stop-color="#020060"/>
</linearGradient>
<linearGradient id="paint8_linear_177_1236" x1="194.075" y1="48" x2="194.075" y2="107.798" gradientUnits="userSpaceOnUse">
<stop offset="0.0104167" stop-color="#FFB300"/>
<stop offset="1" stop-color="#FF4B12"/>
</linearGradient>
<clipPath id="clip0_177_1236">
<rect width="75.1031" height="69.674" fill="white" transform="translate(0 17)"/>
</clipPath>
</defs>
</svg>
