<svg width="478" height="88" viewBox="0 0 478 88" fill="none" xmlns="http://www.w3.org/2000/svg">
<path d="M24.3497 20.851L25.4768 21.2173L26.2093 18.9631L25.0822 18.5968L24.3497 20.851ZM9.16332 15.4155C8.57845 15.7093 8.34251 16.4216 8.63633 17.0064C8.93014 17.5913 9.64245 17.8272 10.2273 17.5334L9.16332 15.4155ZM25.0822 18.5968C24.3428 18.3565 23.306 17.9279 22.0196 17.4119C20.7606 16.9068 19.3095 16.3382 17.8272 15.8617C16.3501 15.3869 14.799 14.9892 13.3389 14.8435C11.8953 14.6994 10.4126 14.7879 9.16332 15.4155L10.2273 17.5334C10.9013 17.1948 11.8633 17.0782 13.1035 17.202C14.3273 17.3241 15.6992 17.6673 17.1019 18.1182C18.4994 18.5674 19.885 19.1094 21.1372 19.6117C22.3621 20.103 23.5111 20.5785 24.3497 20.851L25.0822 18.5968Z" fill="url(#paint0_linear_932_4999)"/>
<path d="M53.3137 40.7957L26.1094 23.1665" stroke="url(#paint1_linear_932_4999)" stroke-width="2.37021" stroke-linecap="round"/>
<path d="M68.4008 54.3819L67.3847 54.9918L68.6045 57.024L69.6206 56.4141L68.4008 54.3819ZM64.7646 46.8777C64.2068 46.5353 63.477 46.7099 63.1346 47.2677C62.7921 47.8255 62.9667 48.5552 63.5245 48.8977L64.7646 46.8777ZM69.6206 56.4141C70.2221 56.0531 70.6983 55.4652 70.8818 54.6947C71.0628 53.9348 70.9337 53.1117 70.5526 52.2911C69.8079 50.6873 68.0037 48.8663 64.7646 46.8777L63.5245 48.8977C66.6287 50.8034 67.9528 52.3202 68.4029 53.2894C68.6192 53.7553 68.6042 54.0274 68.5761 54.1455C68.5505 54.2529 68.4945 54.3257 68.4008 54.3819L69.6206 56.4141Z" fill="url(#paint2_linear_932_4999)"/>
<path d="M23.2608 12.0233L23.7829 10.3359L24.2908 12.0233C26.2505 18.533 31.1838 24.089 37.9749 27.4343L39.7352 28.0444L37.9749 28.9115C31.1838 32.2568 26.2505 37.8128 24.2908 44.3225L23.7829 46.0099L23.2608 44.3225C21.3012 37.8128 16.3678 32.2568 9.57672 28.9115L7.81641 28.0444L9.57672 27.4343C15.1761 24.676 19.5126 20.4149 21.9605 15.3553C22.4815 14.2786 22.9169 13.1656 23.2608 12.0233Z" fill="url(#paint3_linear_932_4999)"/>
<path d="M23.2608 12.0233L23.7829 10.3359L24.2908 12.0233C26.2505 18.533 31.1838 24.089 37.9749 27.4343L39.7352 28.0444L37.9749 28.9115C31.1838 32.2568 26.2505 37.8128 24.2908 44.3225L23.7829 46.0099L23.2608 44.3225C21.3012 37.8128 16.3678 32.2568 9.57672 28.9115L7.81641 28.0444L9.57672 27.4343C15.1761 24.676 19.5126 20.4149 21.9605 15.3553C22.4815 14.2786 22.9169 13.1656 23.2608 12.0233Z" stroke="#79627D" stroke-width="2.37021"/>
<path d="M23.2608 12.0233L23.7829 10.3359L24.2908 12.0233C26.2505 18.533 31.1838 24.089 37.9749 27.4343L39.7352 28.0444L37.9749 28.9115C31.1838 32.2568 26.2505 37.8128 24.2908 44.3225L23.7829 46.0099L23.2608 44.3225C21.3012 37.8128 16.3678 32.2568 9.57672 28.9115L7.81641 28.0444L9.57672 27.4343C15.1761 24.676 19.5126 20.4149 21.9605 15.3553C22.4815 14.2786 22.9169 13.1656 23.2608 12.0233Z" stroke="url(#paint4_linear_932_4999)" stroke-width="2.37021"/>
<path d="M49.426 23.733L50.0709 21.6016L50.6984 23.733C53.1191 31.9558 59.2133 38.9739 67.6023 43.1995L69.7768 43.9702L67.6023 45.0655C59.2133 49.2911 53.1191 56.3092 50.6984 64.532L50.0709 66.6634L49.426 64.532C47.0053 56.3092 40.9111 49.2911 32.5222 45.0655L30.3477 43.9702L32.5222 43.1995C40.9111 38.9739 47.0053 31.9558 49.426 23.733Z" fill="url(#paint5_linear_932_4999)"/>
<path d="M49.426 23.733L50.0709 21.6016L50.6984 23.733C53.1191 31.9558 59.2133 38.9739 67.6023 43.1995L69.7768 43.9702L67.6023 45.0655C59.2133 49.2911 53.1191 56.3092 50.6984 64.532L50.0709 66.6634L49.426 64.532C47.0053 56.3092 40.9111 49.2911 32.5222 45.0655L30.3477 43.9702L32.5222 43.1995C40.9111 38.9739 47.0053 31.9558 49.426 23.733Z" stroke="#79627D" stroke-width="2.37021"/>
<path d="M49.426 23.733L50.0709 21.6016L50.6984 23.733C53.1191 31.9558 59.2133 38.9739 67.6023 43.1995L69.7768 43.9702L67.6023 45.0655C59.2133 49.2911 53.1191 56.3092 50.6984 64.532L50.0709 66.6634L49.426 64.532C47.0053 56.3092 40.9111 49.2911 32.5222 45.0655L30.3477 43.9702L32.5222 43.1995C40.9111 38.9739 47.0053 31.9558 49.426 23.733Z" stroke="url(#paint6_linear_932_4999)" stroke-width="2.37021"/>
<path d="M10.5146 15.9688C5.83501 20.2743 22.2883 31.5158 32.3627 38.8068C42.4372 46.7412 63.0128 61.5095 68.839 55.3979" stroke="url(#paint7_linear_932_4999)" stroke-width="2.37021" stroke-linecap="round"/>
<g filter="url(#filter0_d_932_4999)">
<path d="M95.6974 58.793L84.4734 27.145H95.3294L101.677 48.305H101.861L108.255 27.145H118.651L107.473 58.793H95.6974ZM137.076 33.953C141.523 33.953 144.912 34.9956 147.242 37.081C149.604 39.1663 150.784 42.3556 150.784 46.649V48.213H132.568C132.568 49.961 132.952 51.2796 133.718 52.169C134.516 53.0583 135.758 53.503 137.444 53.503C138.978 53.503 140.097 53.181 140.802 52.537C141.538 51.893 141.906 51.0343 141.906 49.961H150.784C150.784 52.905 149.665 55.205 147.426 56.861C145.188 58.517 141.922 59.345 137.628 59.345C133.12 59.345 129.624 58.3023 127.14 56.217C124.656 54.101 123.414 50.9116 123.414 46.649C123.414 42.4783 124.626 39.3196 127.048 37.173C129.471 35.0263 132.814 33.953 137.076 33.953ZM137.444 39.795C134.562 39.795 132.952 41.1596 132.614 43.889H141.538C141.538 42.6316 141.17 41.635 140.434 40.899C139.729 40.163 138.732 39.795 137.444 39.795ZM176.544 33.953C179.365 33.953 181.481 34.735 182.892 36.299C184.303 37.863 185.008 40.117 185.008 43.061V58.793H175.854V44.165C175.854 43.1223 175.578 42.2943 175.026 41.681C174.505 41.037 173.753 40.715 172.772 40.715C171.637 40.715 170.717 41.083 170.012 41.819C169.307 42.555 168.954 43.4596 168.954 44.533V58.793H159.8V34.505H167.298L167.896 38.185C168.847 36.897 170.089 35.8696 171.622 35.103C173.186 34.3363 174.827 33.953 176.544 33.953ZM212.745 58.793L211.963 55.343C210.185 58.011 207.609 59.345 204.235 59.345C200.954 59.345 198.424 58.2716 196.645 56.125C194.867 53.9783 193.977 50.8043 193.977 46.603C193.977 42.4323 194.867 39.289 196.645 37.173C198.424 35.0263 200.954 33.953 204.235 33.953C207.026 33.953 209.295 34.8883 211.043 36.759V25.443H220.197V58.793H212.745ZM207.087 40.715C204.45 40.715 203.131 42.2943 203.131 45.453V47.891C203.131 51.019 204.45 52.583 207.087 52.583C208.437 52.583 209.449 52.1076 210.123 51.157C210.798 50.2063 211.135 48.9643 211.135 47.431V45.913C211.135 44.3796 210.798 43.1376 210.123 42.187C209.449 41.2056 208.437 40.715 207.087 40.715ZM242.921 33.953C247.184 33.953 250.526 35.0416 252.949 37.219C255.402 39.3656 256.629 42.509 256.629 46.649C256.629 50.789 255.402 53.9476 252.949 56.125C250.526 58.2716 247.184 59.345 242.921 59.345C238.658 59.345 235.316 58.2716 232.893 56.125C230.47 53.9783 229.259 50.8196 229.259 46.649C229.259 42.4783 230.47 39.3196 232.893 37.173C235.316 35.0263 238.658 33.953 242.921 33.953ZM242.921 40.163C239.916 40.163 238.413 41.8956 238.413 45.361V47.983C238.413 51.4176 239.916 53.135 242.921 53.135C245.957 53.135 247.475 51.4176 247.475 47.983V45.361C247.475 41.8956 245.957 40.163 242.921 40.163ZM280.411 33.907C281.116 33.907 281.745 33.999 282.297 34.183C282.849 34.3363 283.125 34.4283 283.125 34.459V42.141H280.181C278.279 42.141 276.899 42.6316 276.041 43.613C275.213 44.5943 274.799 46.051 274.799 47.983V58.793H265.645V34.505H273.143L273.741 38.185C274.293 36.7743 275.167 35.7163 276.363 35.011C277.559 34.275 278.908 33.907 280.411 33.907Z" fill="url(#paint8_linear_932_4999)"/>
<path d="M299.93 58.793L288.706 27.145H299.562L305.91 48.305H306.094L312.488 27.145H322.884L311.706 58.793H299.93ZM341.309 33.953C345.756 33.953 349.144 34.9956 351.475 37.081C353.836 39.1663 355.017 42.3556 355.017 46.649V48.213H336.801C336.801 49.961 337.184 51.2796 337.951 52.169C338.748 53.0583 339.99 53.503 341.677 53.503C343.21 53.503 344.33 53.181 345.035 52.537C345.771 51.893 346.139 51.0343 346.139 49.961H355.017C355.017 52.905 353.898 55.205 351.659 56.861C349.42 58.517 346.154 59.345 341.861 59.345C337.353 59.345 333.857 58.3023 331.373 56.217C328.889 54.101 327.647 50.9116 327.647 46.649C327.647 42.4783 328.858 39.3196 331.281 37.173C333.704 35.0263 337.046 33.953 341.309 33.953ZM341.677 39.795C338.794 39.795 337.184 41.1596 336.847 43.889H345.771C345.771 42.6316 345.403 41.635 344.667 40.899C343.962 40.163 342.965 39.795 341.677 39.795ZM378.799 33.907C379.504 33.907 380.133 33.999 380.685 34.183C381.237 34.3363 381.513 34.4283 381.513 34.459V42.141H378.569C376.667 42.141 375.287 42.6316 374.429 43.613C373.601 44.5943 373.187 46.051 373.187 47.983V58.793H364.033V34.505H371.531L372.129 38.185C372.681 36.7743 373.555 35.7163 374.751 35.011C375.947 34.275 377.296 33.907 378.799 33.907ZM401.786 33.953C405.037 33.953 407.781 34.597 410.02 35.885C412.289 37.1423 413.424 39.105 413.424 41.773H404.914C404.914 40.8836 404.515 40.255 403.718 39.887C403.166 39.5803 402.476 39.427 401.648 39.427C399.44 39.427 398.336 39.9483 398.336 40.991C398.336 41.5736 398.719 41.9876 399.486 42.233C400.253 42.4783 401.51 42.739 403.258 43.015C405.405 43.3216 407.199 43.6896 408.64 44.119C410.081 44.5176 411.339 45.2536 412.412 46.327C413.485 47.3696 414.022 48.8416 414.022 50.743C414.022 53.8403 412.857 56.0483 410.526 57.367C408.226 58.6856 405.205 59.345 401.464 59.345C399.317 59.345 397.293 59.0536 395.392 58.471C393.491 57.8576 391.942 56.9223 390.746 55.665C389.55 54.4076 388.952 52.813 388.952 50.881H397.462V51.065C397.493 52.1076 397.922 52.8436 398.75 53.273C399.609 53.6716 400.513 53.871 401.464 53.871C404.009 53.871 405.282 53.273 405.282 52.077C405.282 51.4636 404.883 51.019 404.086 50.743C403.289 50.467 401.985 50.1756 400.176 49.869C397.999 49.501 396.205 49.1023 394.794 48.673C393.414 48.2436 392.203 47.523 391.16 46.511C390.117 45.4683 389.596 44.027 389.596 42.187C389.596 39.2123 390.715 37.0963 392.954 35.839C395.223 34.5816 398.167 33.953 401.786 33.953ZM435.519 33.953C439.966 33.953 443.355 34.9956 445.685 37.081C448.047 39.1663 449.227 42.3556 449.227 46.649V48.213H431.011C431.011 49.961 431.395 51.2796 432.161 52.169C432.959 53.0583 434.201 53.503 435.887 53.503C437.421 53.503 438.54 53.181 439.245 52.537C439.981 51.893 440.349 51.0343 440.349 49.961H449.227C449.227 52.905 448.108 55.205 445.869 56.861C443.631 58.517 440.365 59.345 436.071 59.345C431.563 59.345 428.067 58.3023 425.583 56.217C423.099 54.101 421.857 50.9116 421.857 46.649C421.857 42.4783 423.069 39.3196 425.491 37.173C427.914 35.0263 431.257 33.953 435.519 33.953ZM435.887 39.795C433.005 39.795 431.395 41.1596 431.057 43.889H439.981C439.981 42.6316 439.613 41.635 438.877 40.899C438.172 40.163 437.175 39.795 435.887 39.795Z" fill="url(#paint9_linear_932_4999)"/>
</g>
<defs>
<filter id="filter0_d_932_4999" x="75.0848" y="16.055" width="402.305" height="71.4534" filterUnits="userSpaceOnUse" color-interpolation-filters="sRGB">
<feFlood flood-opacity="0" result="BackgroundImageFix"/>
<feColorMatrix in="SourceAlpha" type="matrix" values="0 0 0 0 0 0 0 0 0 0 0 0 0 0 0 0 0 0 127 0" result="hardAlpha"/>
<feOffset dx="9.38789" dy="9.38789"/>
<feGaussianBlur stdDeviation="9.38789"/>
<feComposite in2="hardAlpha" operator="out"/>
<feColorMatrix type="matrix" values="0 0 0 0 1 0 0 0 0 0.580392 0 0 0 0 0.00392157 0 0 0 0.1 0"/>
<feBlend mode="normal" in2="BackgroundImageFix" result="effect1_dropShadow_932_4999"/>
<feBlend mode="normal" in="SourceGraphic" in2="effect1_dropShadow_932_4999" result="shape"/>
</filter>
<linearGradient id="paint0_linear_932_4999" x1="17.2056" y1="15.9688" x2="17.2056" y2="19.7239" gradientUnits="userSpaceOnUse">
<stop/>
<stop offset="1" stop-color="#5E0060"/>
</linearGradient>
<linearGradient id="paint1_linear_932_4999" x1="40.1001" y1="23.6725" x2="39.4989" y2="40.296" gradientUnits="userSpaceOnUse">
<stop/>
<stop offset="1" stop-color="#5E0060"/>
</linearGradient>
<linearGradient id="paint2_linear_932_4999" x1="66.9609" y1="47.8877" x2="66.9609" y2="55.398" gradientUnits="userSpaceOnUse">
<stop/>
<stop offset="1" stop-color="#000A60"/>
</linearGradient>
<linearGradient id="paint3_linear_932_4999" x1="23.7758" y1="10.3359" x2="23.7758" y2="46.0099" gradientUnits="userSpaceOnUse">
<stop offset="0.0729167" stop-color="#E7A036"/>
<stop offset="0.421875" stop-color="#F1BE07"/>
<stop offset="1" stop-color="#F7F8CE"/>
</linearGradient>
<linearGradient id="paint4_linear_932_4999" x1="23.7758" y1="10.3359" x2="23.7758" y2="46.0099" gradientUnits="userSpaceOnUse">
<stop/>
<stop offset="1" stop-color="#06083A"/>
</linearGradient>
<linearGradient id="paint5_linear_932_4999" x1="50.0622" y1="21.6016" x2="50.0622" y2="66.6634" gradientUnits="userSpaceOnUse">
<stop offset="0.0729167" stop-color="#E2A54A"/>
<stop offset="0.421875" stop-color="#F1BE07"/>
<stop offset="1" stop-color="#F7F8CE"/>
</linearGradient>
<linearGradient id="paint6_linear_932_4999" x1="50.0622" y1="21.6016" x2="50.0622" y2="66.6634" gradientUnits="userSpaceOnUse">
<stop/>
<stop offset="1" stop-color="#000460"/>
</linearGradient>
<linearGradient id="paint7_linear_932_4999" x1="39.7366" y1="15.9688" x2="39.7366" y2="57.2755" gradientUnits="userSpaceOnUse">
<stop/>
<stop offset="1" stop-color="#020060"/>
</linearGradient>
<linearGradient id="paint8_linear_932_4999" x1="267.691" y1="18.793" x2="267.691" y2="68.793" gradientUnits="userSpaceOnUse">
<stop stop-color="#3A3A5E"/>
<stop offset="1" stop-color="#3A3A5E"/>
</linearGradient>
<linearGradient id="paint9_linear_932_4999" x1="267.691" y1="18.793" x2="267.691" y2="68.793" gradientUnits="userSpaceOnUse">
<stop stop-color="#FFB301"/>
<stop offset="1" stop-color="#FF9401"/>
</linearGradient>
</defs>
</svg>
