<svg width="342" height="83" viewBox="0 0 342 83" fill="none" xmlns="http://www.w3.org/2000/svg">
<path d="M24.6524 22.9028L25.7795 23.269L26.512 21.0148L25.3849 20.6486L24.6524 22.9028ZM9.46605 17.4672C8.88119 17.761 8.64525 18.4733 8.93906 19.0582C9.23287 19.6431 9.94518 19.879 10.53 19.5852L9.46605 17.4672ZM25.3849 20.6486C24.6455 20.4083 23.6087 19.9796 22.3224 19.4636C21.0634 18.9586 19.6123 18.3899 18.13 17.9134C16.6528 17.4386 15.1018 17.041 13.6417 16.8952C12.1981 16.7512 10.7153 16.8396 9.46605 17.4672L10.53 19.5852C11.204 19.2466 12.166 19.1299 13.4063 19.2537C14.63 19.3759 16.0019 19.7191 17.4046 20.1699C18.8021 20.6192 20.1877 21.1611 21.4399 21.6634C22.6648 22.1548 23.8138 22.6302 24.6524 22.9028L25.3849 20.6486Z" fill="url(#paint0_linear_918_5002)"/>
<path d="M53.6164 42.8474L26.4121 25.2183" stroke="url(#paint1_linear_918_5002)" stroke-width="2.37021" stroke-linecap="round"/>
<path d="M68.7036 56.4336L67.6874 57.0435L68.9072 59.0758L69.9233 58.4659L68.7036 56.4336ZM65.0673 48.9295C64.5095 48.5871 63.7797 48.7616 63.4373 49.3194C63.0949 49.8772 63.2694 50.607 63.8272 50.9494L65.0673 48.9295ZM69.9233 58.4659C70.5248 58.1049 71.0011 57.517 71.1846 56.7464C71.3655 55.9866 71.2364 55.1635 70.8554 54.3429C70.1106 52.7391 68.3064 50.918 65.0673 48.9295L63.8272 50.9494C66.9315 52.8551 68.2556 54.372 68.7056 55.3412C68.922 55.807 68.907 56.0792 68.8788 56.1973C68.8533 56.3047 68.7973 56.3774 68.7036 56.4336L69.9233 58.4659Z" fill="url(#paint2_linear_918_5002)"/>
<path d="M23.5635 14.0751L24.0856 12.3877L24.5936 14.0751C26.5532 20.5848 31.4866 26.1408 38.2777 29.4861L40.038 30.0962L38.2777 30.9633C31.4866 34.3086 26.5532 39.8646 24.5936 46.3743L24.0856 48.0617L23.5635 46.3743C21.6039 39.8646 16.6705 34.3086 9.87945 30.9633L8.11914 30.0962L9.87945 29.4861C15.4789 26.7278 19.8153 22.4666 22.2633 17.4071C22.7842 16.3303 23.2197 15.2174 23.5635 14.0751Z" fill="url(#paint3_linear_918_5002)"/>
<path d="M23.5635 14.0751L24.0856 12.3877L24.5936 14.0751C26.5532 20.5848 31.4866 26.1408 38.2777 29.4861L40.038 30.0962L38.2777 30.9633C31.4866 34.3086 26.5532 39.8646 24.5936 46.3743L24.0856 48.0617L23.5635 46.3743C21.6039 39.8646 16.6705 34.3086 9.87945 30.9633L8.11914 30.0962L9.87945 29.4861C15.4789 26.7278 19.8153 22.4666 22.2633 17.4071C22.7842 16.3303 23.2197 15.2174 23.5635 14.0751Z" stroke="#79627D" stroke-width="2.37021"/>
<path d="M23.5635 14.0751L24.0856 12.3877L24.5936 14.0751C26.5532 20.5848 31.4866 26.1408 38.2777 29.4861L40.038 30.0962L38.2777 30.9633C31.4866 34.3086 26.5532 39.8646 24.5936 46.3743L24.0856 48.0617L23.5635 46.3743C21.6039 39.8646 16.6705 34.3086 9.87945 30.9633L8.11914 30.0962L9.87945 29.4861C15.4789 26.7278 19.8153 22.4666 22.2633 17.4071C22.7842 16.3303 23.2197 15.2174 23.5635 14.0751Z" stroke="url(#paint4_linear_918_5002)" stroke-width="2.37021"/>
<path d="M49.7288 25.7848L50.3737 23.6533L51.0011 25.7848C53.4219 34.0076 59.5161 41.0256 67.905 45.2513L70.0795 46.0219L67.905 47.1173C59.5161 51.3429 53.4219 58.3609 51.0011 66.5838L50.3737 68.7152L49.7288 66.5838C47.3081 58.3609 41.2139 51.3429 32.8249 47.1173L30.6504 46.0219L32.8249 45.2513C41.2139 41.0256 47.3081 34.0076 49.7288 25.7848Z" fill="url(#paint5_linear_918_5002)"/>
<path d="M49.7288 25.7848L50.3737 23.6533L51.0011 25.7848C53.4219 34.0076 59.5161 41.0256 67.905 45.2513L70.0795 46.0219L67.905 47.1173C59.5161 51.3429 53.4219 58.3609 51.0011 66.5838L50.3737 68.7152L49.7288 66.5838C47.3081 58.3609 41.2139 51.3429 32.8249 47.1173L30.6504 46.0219L32.8249 45.2513C41.2139 41.0256 47.3081 34.0076 49.7288 25.7848Z" stroke="#79627D" stroke-width="2.37021"/>
<path d="M49.7288 25.7848L50.3737 23.6533L51.0011 25.7848C53.4219 34.0076 59.5161 41.0256 67.905 45.2513L70.0795 46.0219L67.905 47.1173C59.5161 51.3429 53.4219 58.3609 51.0011 66.5838L50.3737 68.7152L49.7288 66.5838C47.3081 58.3609 41.2139 51.3429 32.8249 47.1173L30.6504 46.0219L32.8249 45.2513C41.2139 41.0256 47.3081 34.0076 49.7288 25.7848Z" stroke="url(#paint6_linear_918_5002)" stroke-width="2.37021"/>
<path d="M10.8173 18.0205C6.13774 22.3261 22.591 33.5676 32.6655 40.8586C42.7399 48.793 63.3156 63.5612 69.1417 57.4496" stroke="url(#paint7_linear_918_5002)" stroke-width="2.37021" stroke-linecap="round"/>
<path d="M89.9463 56H84.376C84.2412 56 84.1663 55.9251 84.1514 55.7754L77.7949 24.1729C77.765 24.0531 77.8249 23.9932 77.9746 23.9932H83.1855C83.3053 23.9932 83.3802 24.0531 83.4102 24.1729L87.1836 45.2412L90.8672 24.1729C90.8971 24.0531 90.972 23.9932 91.0918 23.9932H96.2354C96.4001 23.9932 96.46 24.0531 96.415 24.1729L90.1709 55.7754C90.1559 55.9251 90.0811 56 89.9463 56ZM118.026 56H103.803C103.689 56 103.631 55.9284 103.631 55.7852L103.674 25.5566C103.674 25.4421 103.732 25.3848 103.846 25.3848H117.983C118.097 25.3848 118.155 25.4564 118.155 25.5996V30.5195C118.155 30.6341 118.097 30.6914 117.983 30.6914H108.959V37.5664H117.983C118.097 37.5664 118.155 37.6237 118.155 37.7383L118.198 42.7227C118.198 42.8372 118.14 42.8945 118.026 42.8945H108.959V50.5859H118.026C118.14 50.5859 118.198 50.6576 118.198 50.8008V55.8281C118.198 55.9427 118.14 56 118.026 56ZM131.299 56H126.895C126.665 56 126.551 55.8997 126.551 55.6992L126.508 25.7285C126.508 25.4993 126.622 25.3848 126.852 25.3848H130.826L138.26 42.7227L138.045 25.7285C138.045 25.4993 138.174 25.3848 138.432 25.3848H142.793C142.965 25.3848 143.051 25.4993 143.051 25.7285L143.094 55.7422C143.094 55.9141 143.022 56 142.879 56H139.012L131.385 39.8008L131.707 55.6562C131.707 55.8854 131.571 56 131.299 56ZM159.418 55.957L151.533 56C151.39 56 151.318 55.9284 151.318 55.7852L151.404 25.5566C151.404 25.4421 151.461 25.3848 151.576 25.3848L159.804 25.3418C161.437 25.2988 162.912 25.6712 164.23 26.459C165.562 27.2467 166.622 28.3138 167.41 29.6602C168.212 30.9922 168.613 32.4674 168.613 34.0859V46.7188C168.613 48.4089 168.205 49.9557 167.388 51.3594C166.558 52.7487 165.455 53.8587 164.08 54.6895C162.705 55.5059 161.151 55.9284 159.418 55.957ZM159.804 30.6055L156.732 30.6484L156.689 50.5859H159.418C160.506 50.5859 161.423 50.2064 162.168 49.4473C162.912 48.6882 163.285 47.7786 163.285 46.7188V34.043C163.285 33.112 162.941 32.3027 162.254 31.6152C161.566 30.9134 160.75 30.5768 159.804 30.6055ZM184.614 56.4297C183.053 56.4297 181.614 56.0286 180.296 55.2266C178.993 54.4245 177.94 53.3574 177.138 52.0254C176.35 50.679 175.956 49.2038 175.956 47.5996L175.999 33.6562C175.999 32.0234 176.393 30.5553 177.181 29.252C177.954 27.9342 179 26.8815 180.318 26.0938C181.635 25.2917 183.068 24.8906 184.614 24.8906C186.219 24.8906 187.658 25.2845 188.933 26.0723C190.222 26.86 191.253 27.9199 192.027 29.252C192.814 30.5697 193.208 32.0378 193.208 33.6562L193.251 47.5996C193.251 49.2038 192.864 50.6719 192.091 52.0039C191.303 53.3503 190.258 54.4245 188.954 55.2266C187.651 56.0286 186.204 56.4297 184.614 56.4297ZM184.614 51.123C185.502 51.123 186.276 50.765 186.935 50.0488C187.594 49.3184 187.923 48.502 187.923 47.5996L187.88 33.6562C187.88 32.6823 187.572 31.8587 186.956 31.1855C186.34 30.5124 185.56 30.1758 184.614 30.1758C183.712 30.1758 182.939 30.5052 182.294 31.1641C181.65 31.8229 181.327 32.6536 181.327 33.6562V47.5996C181.327 48.5592 181.65 49.39 182.294 50.0918C182.939 50.7793 183.712 51.123 184.614 51.123ZM206.137 56H201.153C201.039 56 200.981 55.9284 200.981 55.7852L201.067 25.5566C201.067 25.4421 201.124 25.3848 201.239 25.3848H210.134C211.723 25.3848 213.184 25.7715 214.516 26.5449C215.848 27.3184 216.908 28.3568 217.696 29.6602C218.498 30.9635 218.899 32.4388 218.899 34.0859C218.899 35.1602 218.735 36.1341 218.405 37.0078C218.076 37.8815 217.689 38.6191 217.245 39.2207C216.815 39.8223 216.421 40.2663 216.063 40.5527C217.653 42.3145 218.448 44.3841 218.448 46.7617L218.491 55.7852C218.491 55.9284 218.419 56 218.276 56H213.292C213.177 56 213.12 55.957 213.12 55.8711V46.7617C213.12 45.7018 212.748 44.7852 212.003 44.0117C211.258 43.2383 210.341 42.8516 209.253 42.8516H206.352L206.309 55.7852C206.309 55.9284 206.252 56 206.137 56ZM210.134 30.6484H206.352V37.5664H210.134C211.036 37.5664 211.838 37.2298 212.54 36.5566C213.256 35.8835 213.614 35.0599 213.614 34.0859C213.614 33.1549 213.27 32.3529 212.583 31.6797C211.895 30.9922 211.079 30.6484 210.134 30.6484Z" fill="url(#paint8_linear_918_5002)"/>
<path d="M237.423 56H231.853C231.718 56 231.643 55.9251 231.628 55.7754L225.272 24.1729C225.242 24.0531 225.302 23.9932 225.452 23.9932H230.663C230.782 23.9932 230.857 24.0531 230.887 24.1729L234.661 45.2412L238.344 24.1729C238.374 24.0531 238.449 23.9932 238.569 23.9932H243.712C243.877 23.9932 243.937 24.0531 243.892 24.1729L237.648 55.7754C237.633 55.9251 237.558 56 237.423 56ZM263.451 56H248.582C248.462 56 248.402 55.9251 248.402 55.7754L248.447 24.1729C248.447 24.0531 248.507 23.9932 248.627 23.9932H263.406C263.526 23.9932 263.586 24.068 263.586 24.2178V29.3613C263.586 29.4811 263.526 29.541 263.406 29.541H253.972V36.7285H263.406C263.526 36.7285 263.586 36.7884 263.586 36.9082L263.631 42.1191C263.631 42.2389 263.571 42.2988 263.451 42.2988H253.972V50.3398H263.451C263.571 50.3398 263.631 50.4147 263.631 50.5645V55.8203C263.631 55.9401 263.571 56 263.451 56ZM277.709 56H272.498C272.378 56 272.319 55.9251 272.319 55.7754L272.408 24.1729C272.408 24.0531 272.468 23.9932 272.588 23.9932H281.887C283.549 23.9932 285.076 24.3975 286.469 25.2061C287.862 26.0146 288.97 27.1003 289.793 28.4629C290.632 29.8255 291.051 31.3678 291.051 33.0898C291.051 34.2129 290.879 35.2311 290.534 36.1445C290.19 37.0579 289.786 37.8291 289.321 38.458C288.872 39.0869 288.46 39.5511 288.086 39.8506C289.748 41.6924 290.579 43.8561 290.579 46.3418L290.624 55.7754C290.624 55.9251 290.549 56 290.4 56H285.189C285.069 56 285.009 55.9551 285.009 55.8652V46.3418C285.009 45.2337 284.62 44.2754 283.841 43.4668C283.062 42.6582 282.104 42.2539 280.966 42.2539H277.934L277.889 55.7754C277.889 55.9251 277.829 56 277.709 56ZM281.887 29.4961H277.934V36.7285H281.887C282.83 36.7285 283.669 36.3766 284.403 35.6729C285.151 34.9691 285.526 34.1081 285.526 33.0898C285.526 32.1165 285.166 31.278 284.447 30.5742C283.729 29.8555 282.875 29.4961 281.887 29.4961ZM306.926 56.4492C305.294 56.4492 303.789 56.0299 302.412 55.1914C301.049 54.3529 299.956 53.2373 299.132 51.8447C298.324 50.4372 297.92 48.8949 297.92 47.2178V45.1064C297.92 44.9417 297.994 44.8594 298.144 44.8594H303.31C303.43 44.8594 303.49 44.9417 303.49 45.1064V47.2178C303.49 48.221 303.827 49.0895 304.501 49.8232C305.174 50.542 305.983 50.9014 306.926 50.9014C307.885 50.9014 308.701 50.5345 309.375 49.8008C310.048 49.0521 310.385 48.1911 310.385 47.2178C310.385 46.0947 309.652 45.1139 308.184 44.2754C307.945 44.1257 307.63 43.946 307.241 43.7363C306.866 43.5117 306.417 43.2572 305.893 42.9727C305.369 42.6882 304.86 42.4111 304.366 42.1416C303.872 41.8571 303.393 41.5876 302.928 41.333C301.251 40.3447 300.001 39.1094 299.177 37.627C298.369 36.1296 297.964 34.4525 297.964 32.5957C297.964 30.8887 298.384 29.3464 299.222 27.9688C300.061 26.6061 301.154 25.528 302.502 24.7344C303.864 23.9258 305.339 23.5215 306.926 23.5215C308.559 23.5215 310.056 23.9258 311.419 24.7344C312.781 25.5579 313.867 26.651 314.675 28.0137C315.499 29.3763 315.911 30.9036 315.911 32.5957V36.3691C315.911 36.4889 315.851 36.5488 315.731 36.5488H310.565C310.445 36.5488 310.385 36.4889 310.385 36.3691L310.34 32.5957C310.34 31.5176 310.004 30.6416 309.33 29.9678C308.656 29.2939 307.855 28.957 306.926 28.957C305.983 28.957 305.174 29.3164 304.501 30.0352C303.827 30.7539 303.49 31.6074 303.49 32.5957C303.49 33.599 303.699 34.4375 304.119 35.1113C304.553 35.7852 305.339 36.429 306.477 37.043C306.597 37.1029 306.874 37.2526 307.308 37.4922C307.742 37.7318 308.222 38.0013 308.746 38.3008C309.285 38.5853 309.771 38.8473 310.206 39.0869C310.64 39.3115 310.902 39.4463 310.992 39.4912C312.519 40.3447 313.725 41.3929 314.608 42.6357C315.506 43.8786 315.956 45.4059 315.956 47.2178C315.956 48.9697 315.551 50.542 314.743 51.9346C313.919 53.3271 312.826 54.4277 311.463 55.2363C310.101 56.0449 308.588 56.4492 306.926 56.4492ZM338.794 56H323.925C323.805 56 323.745 55.9251 323.745 55.7754L323.79 24.1729C323.79 24.0531 323.85 23.9932 323.97 23.9932H338.749C338.869 23.9932 338.929 24.068 338.929 24.2178V29.3613C338.929 29.4811 338.869 29.541 338.749 29.541H329.315V36.7285H338.749C338.869 36.7285 338.929 36.7884 338.929 36.9082L338.974 42.1191C338.974 42.2389 338.914 42.2988 338.794 42.2988H329.315V50.3398H338.794C338.914 50.3398 338.974 50.4147 338.974 50.5645V55.8203C338.974 55.9401 338.914 56 338.794 56Z" fill="url(#paint9_linear_918_5002)"/>
<defs>
<linearGradient id="paint0_linear_918_5002" x1="17.5084" y1="18.0205" x2="17.5084" y2="21.7757" gradientUnits="userSpaceOnUse">
<stop/>
<stop offset="1" stop-color="#5E0060"/>
</linearGradient>
<linearGradient id="paint1_linear_918_5002" x1="40.4029" y1="25.7243" x2="39.8016" y2="42.3478" gradientUnits="userSpaceOnUse">
<stop/>
<stop offset="1" stop-color="#5E0060"/>
</linearGradient>
<linearGradient id="paint2_linear_918_5002" x1="67.2636" y1="49.9395" x2="67.2636" y2="57.4498" gradientUnits="userSpaceOnUse">
<stop/>
<stop offset="1" stop-color="#000A60"/>
</linearGradient>
<linearGradient id="paint3_linear_918_5002" x1="24.0786" y1="12.3877" x2="24.0786" y2="48.0617" gradientUnits="userSpaceOnUse">
<stop offset="0.0729167" stop-color="#E7A036"/>
<stop offset="0.421875" stop-color="#F1BE07"/>
<stop offset="1" stop-color="#F7F8CE"/>
</linearGradient>
<linearGradient id="paint4_linear_918_5002" x1="24.0786" y1="12.3877" x2="24.0786" y2="48.0617" gradientUnits="userSpaceOnUse">
<stop/>
<stop offset="1" stop-color="#06083A"/>
</linearGradient>
<linearGradient id="paint5_linear_918_5002" x1="50.365" y1="23.6533" x2="50.365" y2="68.7152" gradientUnits="userSpaceOnUse">
<stop offset="0.0729167" stop-color="#E2A54A"/>
<stop offset="0.421875" stop-color="#F1BE07"/>
<stop offset="1" stop-color="#F7F8CE"/>
</linearGradient>
<linearGradient id="paint6_linear_918_5002" x1="50.365" y1="23.6533" x2="50.365" y2="68.7152" gradientUnits="userSpaceOnUse">
<stop/>
<stop offset="1" stop-color="#000460"/>
</linearGradient>
<linearGradient id="paint7_linear_918_5002" x1="40.0393" y1="18.0205" x2="40.0393" y2="59.3272" gradientUnits="userSpaceOnUse">
<stop/>
<stop offset="1" stop-color="#020060"/>
</linearGradient>
<linearGradient id="paint8_linear_918_5002" x1="209.391" y1="0" x2="209.391" y2="83" gradientUnits="userSpaceOnUse">
<stop stop-color="#3A3A5E"/>
<stop offset="1" stop-color="#3A3A5E"/>
</linearGradient>
<linearGradient id="paint9_linear_918_5002" x1="209.391" y1="0" x2="209.391" y2="83" gradientUnits="userSpaceOnUse">
<stop stop-color="#FFB301"/>
<stop offset="1" stop-color="#FF9401"/>
</linearGradient>
</defs>
</svg>
